%TF.GenerationSoftware,KiCad,Pcbnew,6.0.2+dfsg-1*%
%TF.CreationDate,2023-07-11T14:37:47-05:00*%
%TF.ProjectId,2023-07-06-dual-jfet-lna-part-deux,32303233-2d30-4372-9d30-362d6475616c,rev?*%
%TF.SameCoordinates,Original*%
%TF.FileFunction,Copper,L1,Top*%
%TF.FilePolarity,Positive*%
%FSLAX46Y46*%
G04 Gerber Fmt 4.6, Leading zero omitted, Abs format (unit mm)*
G04 Created by KiCad (PCBNEW 6.0.2+dfsg-1) date 2023-07-11 14:37:47*
%MOMM*%
%LPD*%
G01*
G04 APERTURE LIST*
G04 Aperture macros list*
%AMRoundRect*
0 Rectangle with rounded corners*
0 $1 Rounding radius*
0 $2 $3 $4 $5 $6 $7 $8 $9 X,Y pos of 4 corners*
0 Add a 4 corners polygon primitive as box body*
4,1,4,$2,$3,$4,$5,$6,$7,$8,$9,$2,$3,0*
0 Add four circle primitives for the rounded corners*
1,1,$1+$1,$2,$3*
1,1,$1+$1,$4,$5*
1,1,$1+$1,$6,$7*
1,1,$1+$1,$8,$9*
0 Add four rect primitives between the rounded corners*
20,1,$1+$1,$2,$3,$4,$5,0*
20,1,$1+$1,$4,$5,$6,$7,0*
20,1,$1+$1,$6,$7,$8,$9,0*
20,1,$1+$1,$8,$9,$2,$3,0*%
G04 Aperture macros list end*
%TA.AperFunction,SMDPad,CuDef*%
%ADD10RoundRect,0.250000X0.375000X0.625000X-0.375000X0.625000X-0.375000X-0.625000X0.375000X-0.625000X0*%
%TD*%
%TA.AperFunction,ComponentPad*%
%ADD11C,2.600000*%
%TD*%
%TA.AperFunction,ComponentPad*%
%ADD12C,2.200000*%
%TD*%
%TA.AperFunction,SMDPad,CuDef*%
%ADD13RoundRect,0.150000X-0.587500X-0.150000X0.587500X-0.150000X0.587500X0.150000X-0.587500X0.150000X0*%
%TD*%
%TA.AperFunction,SMDPad,CuDef*%
%ADD14RoundRect,0.150000X0.150000X-0.587500X0.150000X0.587500X-0.150000X0.587500X-0.150000X-0.587500X0*%
%TD*%
%TA.AperFunction,SMDPad,CuDef*%
%ADD15RoundRect,0.250000X0.450000X-0.262500X0.450000X0.262500X-0.450000X0.262500X-0.450000X-0.262500X0*%
%TD*%
%TA.AperFunction,SMDPad,CuDef*%
%ADD16RoundRect,0.250000X0.262500X0.450000X-0.262500X0.450000X-0.262500X-0.450000X0.262500X-0.450000X0*%
%TD*%
%TA.AperFunction,SMDPad,CuDef*%
%ADD17RoundRect,0.250000X-0.262500X-0.450000X0.262500X-0.450000X0.262500X0.450000X-0.262500X0.450000X0*%
%TD*%
%TA.AperFunction,SMDPad,CuDef*%
%ADD18RoundRect,0.250000X-0.450000X0.262500X-0.450000X-0.262500X0.450000X-0.262500X0.450000X0.262500X0*%
%TD*%
%TA.AperFunction,ComponentPad*%
%ADD19C,2.000000*%
%TD*%
%TA.AperFunction,ComponentPad*%
%ADD20O,2.000000X2.000000*%
%TD*%
%TA.AperFunction,SMDPad,CuDef*%
%ADD21R,3.600000X1.500000*%
%TD*%
%TA.AperFunction,SMDPad,CuDef*%
%ADD22R,4.200000X1.500000*%
%TD*%
%TA.AperFunction,SMDPad,CuDef*%
%ADD23RoundRect,0.250000X0.325000X0.650000X-0.325000X0.650000X-0.325000X-0.650000X0.325000X-0.650000X0*%
%TD*%
%TA.AperFunction,SMDPad,CuDef*%
%ADD24RoundRect,0.250000X-0.325000X-0.650000X0.325000X-0.650000X0.325000X0.650000X-0.325000X0.650000X0*%
%TD*%
%TA.AperFunction,SMDPad,CuDef*%
%ADD25RoundRect,0.250000X0.250000X0.475000X-0.250000X0.475000X-0.250000X-0.475000X0.250000X-0.475000X0*%
%TD*%
%TA.AperFunction,SMDPad,CuDef*%
%ADD26RoundRect,0.250000X0.650000X-0.325000X0.650000X0.325000X-0.650000X0.325000X-0.650000X-0.325000X0*%
%TD*%
%TA.AperFunction,SMDPad,CuDef*%
%ADD27RoundRect,0.250000X-0.475000X0.250000X-0.475000X-0.250000X0.475000X-0.250000X0.475000X0.250000X0*%
%TD*%
%TA.AperFunction,ViaPad*%
%ADD28C,2.000000*%
%TD*%
%TA.AperFunction,Conductor*%
%ADD29C,0.600000*%
%TD*%
%TA.AperFunction,Conductor*%
%ADD30C,1.000000*%
%TD*%
G04 APERTURE END LIST*
D10*
%TO.P,D1,1,K*%
%TO.N,Net-(D1-Pad1)*%
X242400000Y-134700000D03*
%TO.P,D1,2,A*%
%TO.N,+12V*%
X239600000Y-134700000D03*
%TD*%
D11*
%TO.P,TP2,1,1*%
%TO.N,GND*%
X228800000Y-135540000D03*
X228800000Y-130460000D03*
%TD*%
%TO.P,TP1,1,1*%
%TO.N,+12V*%
X223000000Y-135540000D03*
X223000000Y-130460000D03*
%TD*%
D12*
%TO.P,L3,2,2*%
%TO.N,Net-(C11-Pad1)*%
X226540000Y-120000000D03*
%TO.P,L3,1,1*%
%TO.N,Net-(L3-Pad1)*%
X221460000Y-120000000D03*
%TD*%
D13*
%TO.P,Q3,1,B*%
%TO.N,Net-(Q3-Pad1)*%
X237062500Y-124050000D03*
%TO.P,Q3,2,E*%
%TO.N,Net-(C7-Pad1)*%
X237062500Y-125950000D03*
%TO.P,Q3,3,C*%
%TO.N,+12V*%
X238937500Y-125000000D03*
%TD*%
D14*
%TO.P,Q2,1,D*%
%TO.N,Net-(L1-Pad1)*%
X212350000Y-117937500D03*
%TO.P,Q2,2,S*%
%TO.N,Net-(L2-Pad1)*%
X214250000Y-117937500D03*
%TO.P,Q2,3,G*%
%TO.N,GND*%
X213300000Y-116062500D03*
%TD*%
%TO.P,Q1,1,D*%
%TO.N,Net-(L1-Pad1)*%
X212350000Y-121947500D03*
%TO.P,Q1,2,S*%
%TO.N,Net-(L2-Pad1)*%
X214250000Y-121947500D03*
%TO.P,Q1,3,G*%
%TO.N,GND*%
X213300000Y-120072500D03*
%TD*%
D15*
%TO.P,R8,1*%
%TO.N,GND*%
X245232500Y-136612500D03*
%TO.P,R8,2*%
%TO.N,Net-(D1-Pad1)*%
X245232500Y-134787500D03*
%TD*%
%TO.P,R7,1*%
%TO.N,GND*%
X239000000Y-129512500D03*
%TO.P,R7,2*%
%TO.N,Net-(C7-Pad1)*%
X239000000Y-127687500D03*
%TD*%
D16*
%TO.P,R6,1*%
%TO.N,Net-(Q3-Pad1)*%
X238612500Y-122300000D03*
%TO.P,R6,2*%
%TO.N,Net-(C11-Pad2)*%
X236787500Y-122300000D03*
%TD*%
D17*
%TO.P,R5,1*%
%TO.N,GND*%
X231387500Y-122300000D03*
%TO.P,R5,2*%
%TO.N,Net-(C11-Pad2)*%
X233212500Y-122300000D03*
%TD*%
D18*
%TO.P,R4,1*%
%TO.N,Net-(C11-Pad2)*%
X235000000Y-122087500D03*
%TO.P,R4,2*%
%TO.N,+12V*%
X235000000Y-123912500D03*
%TD*%
D17*
%TO.P,R3,1*%
%TO.N,Net-(L2-Pad1)*%
X216587500Y-120000000D03*
%TO.P,R3,2*%
%TO.N,Net-(L3-Pad1)*%
X218412500Y-120000000D03*
%TD*%
%TO.P,R2,1*%
%TO.N,Net-(C3-Pad1)*%
X218387500Y-134000000D03*
%TO.P,R2,2*%
%TO.N,+12V*%
X220212500Y-134000000D03*
%TD*%
D15*
%TO.P,R1,1*%
%TO.N,Net-(C2-Pad1)*%
X207300000Y-130912500D03*
%TO.P,R1,2*%
%TO.N,GND*%
X207300000Y-129087500D03*
%TD*%
D19*
%TO.P,L2,1,1*%
%TO.N,Net-(L2-Pad1)*%
X216000000Y-125900000D03*
D20*
%TO.P,L2,2,2*%
%TO.N,Net-(C3-Pad1)*%
X216000000Y-130980000D03*
%TD*%
D19*
%TO.P,L1,1,1*%
%TO.N,Net-(L1-Pad1)*%
X210600000Y-125880000D03*
D20*
%TO.P,L1,2,2*%
%TO.N,Net-(C2-Pad1)*%
X210600000Y-130960000D03*
%TD*%
D21*
%TO.P,J2,1,In*%
%TO.N,Net-(C8-Pad2)*%
X246537500Y-120000000D03*
D22*
%TO.P,J2,2,Ext*%
%TO.N,GND*%
X246337500Y-122600000D03*
X246337500Y-117440000D03*
%TD*%
D21*
%TO.P,J1,1,In*%
%TO.N,Net-(C1-Pad1)*%
X202762500Y-120000000D03*
D22*
%TO.P,J1,2,Ext*%
%TO.N,GND*%
X202962500Y-117400000D03*
X202962500Y-122560000D03*
%TD*%
D23*
%TO.P,C12,1*%
%TO.N,GND*%
X227475000Y-127100000D03*
%TO.P,C12,2*%
%TO.N,+12V*%
X224525000Y-127100000D03*
%TD*%
D24*
%TO.P,C11,1*%
%TO.N,Net-(C11-Pad1)*%
X230525000Y-120100000D03*
%TO.P,C11,2*%
%TO.N,Net-(C11-Pad2)*%
X233475000Y-120100000D03*
%TD*%
%TO.P,C10,1*%
%TO.N,GND*%
X231757500Y-135700000D03*
%TO.P,C10,2*%
%TO.N,+12V*%
X234707500Y-135700000D03*
%TD*%
D25*
%TO.P,C9,1*%
%TO.N,Net-(C11-Pad2)*%
X233550000Y-117900000D03*
%TO.P,C9,2*%
%TO.N,GND*%
X231650000Y-117900000D03*
%TD*%
D26*
%TO.P,C8,1*%
%TO.N,Net-(C7-Pad1)*%
X241200000Y-127475000D03*
%TO.P,C8,2*%
%TO.N,Net-(C8-Pad2)*%
X241200000Y-124525000D03*
%TD*%
D27*
%TO.P,C7,1*%
%TO.N,Net-(C7-Pad1)*%
X237000000Y-127650000D03*
%TO.P,C7,2*%
%TO.N,GND*%
X237000000Y-129550000D03*
%TD*%
D23*
%TO.P,C6,1*%
%TO.N,+12V*%
X234775000Y-125900000D03*
%TO.P,C6,2*%
%TO.N,GND*%
X231825000Y-125900000D03*
%TD*%
D25*
%TO.P,C5,1*%
%TO.N,+12V*%
X234850000Y-128100000D03*
%TO.P,C5,2*%
%TO.N,GND*%
X232950000Y-128100000D03*
%TD*%
D23*
%TO.P,C3,1*%
%TO.N,Net-(C3-Pad1)*%
X215775000Y-134000000D03*
%TO.P,C3,2*%
%TO.N,GND*%
X212825000Y-134000000D03*
%TD*%
D26*
%TO.P,C2,1*%
%TO.N,Net-(C2-Pad1)*%
X205100000Y-130875000D03*
%TO.P,C2,2*%
%TO.N,GND*%
X205100000Y-127925000D03*
%TD*%
D24*
%TO.P,C1,1*%
%TO.N,Net-(C1-Pad1)*%
X206825000Y-120000000D03*
%TO.P,C1,2*%
%TO.N,Net-(L1-Pad1)*%
X209775000Y-120000000D03*
%TD*%
D28*
%TO.N,GND*%
X204800000Y-135900000D03*
X217500000Y-116600000D03*
X237800000Y-132000000D03*
X237800000Y-118900000D03*
%TD*%
D29*
%TO.N,Net-(L2-Pad1)*%
X216587500Y-120000000D02*
X214500000Y-120000000D01*
X214500000Y-120000000D02*
X214250000Y-120250000D01*
D30*
%TO.N,Net-(L3-Pad1)*%
X218412500Y-120000000D02*
X221460000Y-120000000D01*
D29*
%TO.N,GND*%
X201540000Y-122560000D02*
X201300000Y-122800000D01*
X202962500Y-122560000D02*
X201540000Y-122560000D01*
X201300000Y-122800000D02*
X201300000Y-124600000D01*
X201900000Y-117400000D02*
X201300000Y-116800000D01*
X202962500Y-117400000D02*
X201900000Y-117400000D01*
X201300000Y-116800000D02*
X201300000Y-115300000D01*
X247760000Y-117440000D02*
X248100000Y-117100000D01*
X246337500Y-117440000D02*
X247760000Y-117440000D01*
X248100000Y-117100000D02*
X248100000Y-115800000D01*
X246337500Y-122600000D02*
X247700000Y-122600000D01*
X248100000Y-123000000D02*
X248100000Y-124300000D01*
X247700000Y-122600000D02*
X248100000Y-123000000D01*
%TO.N,Net-(Q3-Pad1)*%
X237062500Y-124050000D02*
X238650000Y-124050000D01*
X238650000Y-124050000D02*
X238650000Y-122337500D01*
X238650000Y-122337500D02*
X238612500Y-122300000D01*
D30*
%TO.N,Net-(C11-Pad2)*%
X235000000Y-122087500D02*
X236575000Y-122087500D01*
X236575000Y-122087500D02*
X236787500Y-122300000D01*
X233475000Y-120100000D02*
X233475000Y-122037500D01*
X233475000Y-122037500D02*
X233212500Y-122300000D01*
X233475000Y-120100000D02*
X233475000Y-117975000D01*
X233475000Y-117975000D02*
X233550000Y-117900000D01*
%TO.N,Net-(C11-Pad1)*%
X226540000Y-120000000D02*
X230425000Y-120000000D01*
X230425000Y-120000000D02*
X230525000Y-120100000D01*
%TO.N,+12V*%
X234775000Y-125900000D02*
X234775000Y-124137500D01*
X234775000Y-124137500D02*
X235000000Y-123912500D01*
D29*
X238937500Y-125000000D02*
X235200000Y-125000000D01*
X235000000Y-124800000D02*
X235000000Y-123912500D01*
X235200000Y-125000000D02*
X235000000Y-124800000D01*
D30*
X233850000Y-132550000D02*
X234900000Y-131500000D01*
X234900000Y-131500000D02*
X234900000Y-128150000D01*
X234900000Y-128150000D02*
X234850000Y-128100000D01*
X234850000Y-128100000D02*
X234850000Y-125975000D01*
X234850000Y-125975000D02*
X234775000Y-125900000D01*
%TO.N,Net-(C8-Pad2)*%
X246537500Y-120000000D02*
X242400000Y-120000000D01*
X242400000Y-120000000D02*
X241200000Y-121200000D01*
X241200000Y-121200000D02*
X241200000Y-124525000D01*
%TO.N,Net-(C7-Pad1)*%
X239000000Y-127687500D02*
X240987500Y-127687500D01*
X240987500Y-127687500D02*
X241200000Y-127475000D01*
X238962500Y-127650000D02*
X239000000Y-127687500D01*
X237000000Y-127650000D02*
X238962500Y-127650000D01*
D29*
X237062500Y-125950000D02*
X238550000Y-125950000D01*
X238550000Y-125950000D02*
X239000000Y-126400000D01*
X239000000Y-126400000D02*
X239000000Y-127687500D01*
D30*
%TO.N,+12V*%
X220212500Y-134000000D02*
X222700000Y-134000000D01*
X233850000Y-132842500D02*
X235707500Y-134700000D01*
X233400000Y-133000000D02*
X233850000Y-132550000D01*
X233850000Y-132550000D02*
X233850000Y-132842500D01*
X239692500Y-134700000D02*
X235707500Y-134700000D01*
X235707500Y-134700000D02*
X234707500Y-135700000D01*
X223000000Y-130460000D02*
X223000000Y-128625000D01*
X223000000Y-128625000D02*
X224525000Y-127100000D01*
X223000000Y-133000000D02*
X233400000Y-133000000D01*
X223000000Y-134300000D02*
X223000000Y-133000000D01*
X223000000Y-133000000D02*
X223000000Y-130460000D01*
%TO.N,Net-(C2-Pad1)*%
X205100000Y-130875000D02*
X210515000Y-130875000D01*
X210515000Y-130875000D02*
X210600000Y-130960000D01*
D29*
%TO.N,Net-(L1-Pad1)*%
X210600000Y-124400000D02*
X210600000Y-125880000D01*
X212350000Y-121947500D02*
X212350000Y-122650000D01*
X212350000Y-122650000D02*
X210600000Y-124400000D01*
%TO.N,Net-(L2-Pad1)*%
X214250000Y-121947500D02*
X214250000Y-122550000D01*
X214250000Y-122550000D02*
X216000000Y-124300000D01*
X216000000Y-124300000D02*
X216000000Y-125900000D01*
D30*
%TO.N,Net-(C3-Pad1)*%
X216000000Y-130980000D02*
X217500000Y-132480000D01*
X217500000Y-132480000D02*
X217500000Y-134000000D01*
D29*
%TO.N,GND*%
X213300000Y-116062500D02*
X213300000Y-126400000D01*
%TO.N,Net-(L2-Pad1)*%
X214250000Y-117937500D02*
X214250000Y-120250000D01*
X214250000Y-120250000D02*
X214250000Y-121947500D01*
%TO.N,Net-(L1-Pad1)*%
X212350000Y-119850000D02*
X212350000Y-117937500D01*
X212350000Y-119850000D02*
X209925000Y-119850000D01*
X212350000Y-121947500D02*
X212350000Y-119850000D01*
X209925000Y-119850000D02*
X209775000Y-120000000D01*
D30*
%TO.N,+12V*%
X223525000Y-136065000D02*
X223000000Y-135540000D01*
%TO.N,Net-(D1-Pad1)*%
X245232500Y-134787500D02*
X242320000Y-134787500D01*
X242320000Y-134787500D02*
X242232500Y-134700000D01*
%TO.N,Net-(C3-Pad1)*%
X218387500Y-134000000D02*
X217500000Y-134000000D01*
X217500000Y-134000000D02*
X215775000Y-134000000D01*
%TO.N,+12V*%
X223000000Y-135540000D02*
X223000000Y-134300000D01*
X222700000Y-134000000D02*
X223000000Y-134300000D01*
%TO.N,Net-(C11-Pad2)*%
X233475000Y-120100000D02*
X233575000Y-120000000D01*
X233212500Y-122300000D02*
X233425000Y-122087500D01*
X233425000Y-122087500D02*
X235000000Y-122087500D01*
%TO.N,Net-(C1-Pad1)*%
X202762500Y-120000000D02*
X206825000Y-120000000D01*
%TD*%
%TA.AperFunction,Conductor*%
%TO.N,GND*%
G36*
X212859603Y-114519962D02*
G01*
X212914141Y-114574500D01*
X212934103Y-114649000D01*
X212914141Y-114723500D01*
X212859603Y-114778038D01*
X212845534Y-114784368D01*
X212845732Y-114784790D01*
X212822323Y-114795755D01*
X212688323Y-114878677D01*
X212674856Y-114889350D01*
X212563527Y-115000874D01*
X212552868Y-115014370D01*
X212470183Y-115148511D01*
X212462917Y-115164093D01*
X212413144Y-115314153D01*
X212409754Y-115329964D01*
X212400388Y-115421378D01*
X212400000Y-115428971D01*
X212400000Y-115742884D01*
X212404145Y-115758355D01*
X212419616Y-115762500D01*
X214180383Y-115762500D01*
X214195854Y-115758355D01*
X214199999Y-115742884D01*
X214199999Y-115429011D01*
X214199603Y-115421346D01*
X214189990Y-115328692D01*
X214186568Y-115312848D01*
X214136540Y-115162898D01*
X214129245Y-115147323D01*
X214046323Y-115013323D01*
X214035650Y-114999856D01*
X213924126Y-114888527D01*
X213910630Y-114877868D01*
X213776489Y-114795183D01*
X213753062Y-114784259D01*
X213754478Y-114781223D01*
X213704024Y-114748009D01*
X213669437Y-114679071D01*
X213673953Y-114602075D01*
X213716362Y-114537653D01*
X213785300Y-114503066D01*
X213815371Y-114500000D01*
X248251000Y-114500000D01*
X248325500Y-114519962D01*
X248380038Y-114574500D01*
X248400000Y-114649000D01*
X248400000Y-115941000D01*
X248380038Y-116015500D01*
X248325500Y-116070038D01*
X248251000Y-116090000D01*
X246657116Y-116090000D01*
X246641645Y-116094145D01*
X246637500Y-116109616D01*
X246637500Y-117591000D01*
X246617538Y-117665500D01*
X246563000Y-117720038D01*
X246488500Y-117740000D01*
X243657117Y-117740000D01*
X243641646Y-117744145D01*
X243637501Y-117759616D01*
X243637501Y-118224440D01*
X243638139Y-118234166D01*
X243651669Y-118336947D01*
X243656682Y-118355655D01*
X243709662Y-118483562D01*
X243719347Y-118500337D01*
X243803631Y-118610179D01*
X243817323Y-118623870D01*
X243828296Y-118632290D01*
X243875249Y-118693480D01*
X243885316Y-118769948D01*
X243855801Y-118841205D01*
X243794611Y-118888158D01*
X243737591Y-118899500D01*
X242504975Y-118899500D01*
X242494061Y-118899100D01*
X242487958Y-118898652D01*
X242480966Y-118897463D01*
X242389510Y-118899459D01*
X242389214Y-118899465D01*
X242385964Y-118899500D01*
X242347531Y-118899500D01*
X242344016Y-118899835D01*
X242344004Y-118899836D01*
X242341095Y-118900114D01*
X242330192Y-118900753D01*
X242278107Y-118901889D01*
X242278103Y-118901889D01*
X242271019Y-118902044D01*
X242239866Y-118908751D01*
X242222667Y-118911413D01*
X242210532Y-118912571D01*
X242190954Y-118914439D01*
X242134153Y-118931102D01*
X242123579Y-118933787D01*
X242065729Y-118946242D01*
X242036409Y-118958718D01*
X242020024Y-118964584D01*
X241989451Y-118973553D01*
X241983149Y-118976799D01*
X241983141Y-118976802D01*
X241936841Y-119000648D01*
X241926956Y-119005290D01*
X241879026Y-119025684D01*
X241879023Y-119025685D01*
X241872498Y-119028462D01*
X241866610Y-119032426D01*
X241846069Y-119046255D01*
X241831081Y-119055119D01*
X241812951Y-119064457D01*
X241802761Y-119069705D01*
X241797186Y-119074084D01*
X241797180Y-119074088D01*
X241756223Y-119106261D01*
X241747394Y-119112687D01*
X241702761Y-119142735D01*
X241702749Y-119142744D01*
X241698301Y-119145739D01*
X241694206Y-119149452D01*
X241674754Y-119168904D01*
X241661436Y-119180717D01*
X241637621Y-119199424D01*
X241632981Y-119204772D01*
X241632977Y-119204775D01*
X241597679Y-119245453D01*
X241590501Y-119253157D01*
X240496055Y-120347603D01*
X240488058Y-120355035D01*
X240483430Y-120359030D01*
X240477640Y-120363137D01*
X240472730Y-120368266D01*
X240472729Y-120368267D01*
X240414211Y-120429396D01*
X240411938Y-120431720D01*
X240384728Y-120458930D01*
X240380601Y-120463927D01*
X240373351Y-120472078D01*
X240337332Y-120509704D01*
X240337327Y-120509710D01*
X240332425Y-120514831D01*
X240315144Y-120541594D01*
X240304862Y-120555643D01*
X240289096Y-120574734D01*
X240289091Y-120574742D01*
X240284575Y-120580210D01*
X240256193Y-120632158D01*
X240250622Y-120641521D01*
X240218515Y-120691246D01*
X240215865Y-120697820D01*
X240215862Y-120697827D01*
X240206609Y-120720788D01*
X240199166Y-120736534D01*
X240187290Y-120758269D01*
X240187286Y-120758278D01*
X240183890Y-120764494D01*
X240181727Y-120771250D01*
X240181727Y-120771251D01*
X240165848Y-120820858D01*
X240162146Y-120831116D01*
X240140019Y-120886019D01*
X240138660Y-120892979D01*
X240133914Y-120917282D01*
X240129583Y-120934150D01*
X240123667Y-120952633D01*
X240119870Y-120964494D01*
X240119024Y-120971538D01*
X240119023Y-120971542D01*
X240112813Y-121023241D01*
X240111115Y-121034028D01*
X240108094Y-121049500D01*
X240099770Y-121092122D01*
X240099500Y-121097643D01*
X240099500Y-121125151D01*
X240098436Y-121142922D01*
X240094824Y-121172991D01*
X240096998Y-121203699D01*
X240099128Y-121233780D01*
X240099500Y-121244303D01*
X240099500Y-123399498D01*
X240079538Y-123473998D01*
X240043864Y-123515619D01*
X239945060Y-123595060D01*
X239940001Y-123601352D01*
X239838887Y-123727112D01*
X239829269Y-123739074D01*
X239825682Y-123746301D01*
X239825024Y-123747329D01*
X239768068Y-123799336D01*
X239692738Y-123815897D01*
X239619221Y-123792574D01*
X239567214Y-123735618D01*
X239550500Y-123667050D01*
X239550500Y-123319653D01*
X239570462Y-123245153D01*
X239583378Y-123226290D01*
X239586113Y-123222888D01*
X239595731Y-123210926D01*
X239607102Y-123188021D01*
X239659623Y-123082216D01*
X239677895Y-123045408D01*
X239722600Y-122866107D01*
X239725500Y-122823566D01*
X239725500Y-121776434D01*
X239722600Y-121733893D01*
X239677895Y-121554592D01*
X239627412Y-121452895D01*
X239599319Y-121396301D01*
X239599317Y-121396298D01*
X239595731Y-121389074D01*
X239590442Y-121382495D01*
X239484999Y-121251352D01*
X239479940Y-121245060D01*
X239459987Y-121229017D01*
X239342216Y-121134326D01*
X239342214Y-121134325D01*
X239335926Y-121129269D01*
X239328702Y-121125683D01*
X239328699Y-121125681D01*
X239250478Y-121086852D01*
X239170408Y-121047105D01*
X238991107Y-121002400D01*
X238984552Y-121001953D01*
X238984551Y-121001953D01*
X238951104Y-120999673D01*
X238948566Y-120999500D01*
X238276434Y-120999500D01*
X238273896Y-120999673D01*
X238240449Y-121001953D01*
X238240448Y-121001953D01*
X238233893Y-121002400D01*
X238054592Y-121047105D01*
X237974522Y-121086852D01*
X237896301Y-121125681D01*
X237896298Y-121125683D01*
X237889074Y-121129269D01*
X237882786Y-121134325D01*
X237882784Y-121134326D01*
X237793364Y-121206222D01*
X237722795Y-121237347D01*
X237646118Y-121229017D01*
X237606636Y-121206222D01*
X237517216Y-121134326D01*
X237517214Y-121134325D01*
X237510926Y-121129269D01*
X237503702Y-121125683D01*
X237503699Y-121125681D01*
X237425478Y-121086852D01*
X237345408Y-121047105D01*
X237166107Y-121002400D01*
X237159552Y-121001953D01*
X237159551Y-121001953D01*
X237126104Y-120999673D01*
X237123566Y-120999500D01*
X236759919Y-120999500D01*
X236731361Y-120996738D01*
X236688148Y-120988299D01*
X236688146Y-120988299D01*
X236682878Y-120987270D01*
X236677357Y-120987000D01*
X236649849Y-120987000D01*
X236632078Y-120985936D01*
X236628964Y-120985562D01*
X236602009Y-120982324D01*
X236541770Y-120986589D01*
X236541220Y-120986628D01*
X236530697Y-120987000D01*
X235622906Y-120987000D01*
X235586860Y-120982574D01*
X235572486Y-120978990D01*
X235572481Y-120978989D01*
X235566107Y-120977400D01*
X235559552Y-120976953D01*
X235559551Y-120976953D01*
X235526104Y-120974673D01*
X235523566Y-120974500D01*
X234799434Y-120974500D01*
X234724934Y-120954538D01*
X234670396Y-120900000D01*
X234651307Y-120823566D01*
X234650500Y-120823566D01*
X234650500Y-120269629D01*
X234653693Y-120239991D01*
X234655129Y-120235506D01*
X234680176Y-120027010D01*
X234665345Y-119817539D01*
X234655542Y-119780827D01*
X234650500Y-119742394D01*
X234650500Y-119376434D01*
X234647600Y-119333893D01*
X234602895Y-119154592D01*
X234599307Y-119147363D01*
X234591039Y-119130707D01*
X234575500Y-119064457D01*
X234575500Y-118760543D01*
X234591039Y-118694293D01*
X234599307Y-118677637D01*
X234599308Y-118677633D01*
X234602895Y-118670408D01*
X234647600Y-118491107D01*
X234650500Y-118448566D01*
X234650500Y-117974849D01*
X234651564Y-117957078D01*
X234651938Y-117953964D01*
X234655176Y-117927009D01*
X234650872Y-117866220D01*
X234650500Y-117855697D01*
X234650500Y-117351434D01*
X234647600Y-117308893D01*
X234602895Y-117129592D01*
X234598324Y-117120384D01*
X243637500Y-117120384D01*
X243641645Y-117135855D01*
X243657116Y-117140000D01*
X246017884Y-117140000D01*
X246033355Y-117135855D01*
X246037500Y-117120384D01*
X246037500Y-116109617D01*
X246033355Y-116094146D01*
X246017884Y-116090001D01*
X244203060Y-116090001D01*
X244193334Y-116090639D01*
X244090553Y-116104169D01*
X244071845Y-116109182D01*
X243943938Y-116162162D01*
X243927163Y-116171847D01*
X243817321Y-116256131D01*
X243803630Y-116269823D01*
X243719347Y-116379663D01*
X243709663Y-116396435D01*
X243656682Y-116524346D01*
X243651669Y-116543052D01*
X243638137Y-116645836D01*
X243637500Y-116655558D01*
X243637500Y-117120384D01*
X234598324Y-117120384D01*
X234553788Y-117030666D01*
X234524319Y-116971301D01*
X234524317Y-116971298D01*
X234520731Y-116964074D01*
X234404940Y-116820060D01*
X234320881Y-116752474D01*
X234267216Y-116709326D01*
X234267214Y-116709325D01*
X234260926Y-116704269D01*
X234253702Y-116700683D01*
X234253699Y-116700681D01*
X234176704Y-116662461D01*
X234095408Y-116622105D01*
X233916107Y-116577400D01*
X233909552Y-116576953D01*
X233909551Y-116576953D01*
X233876104Y-116574673D01*
X233873566Y-116574500D01*
X233226434Y-116574500D01*
X233223896Y-116574673D01*
X233190449Y-116576953D01*
X233190448Y-116576953D01*
X233183893Y-116577400D01*
X233004592Y-116622105D01*
X232923296Y-116662461D01*
X232846301Y-116700681D01*
X232846298Y-116700683D01*
X232839074Y-116704269D01*
X232832786Y-116709325D01*
X232832784Y-116709326D01*
X232779119Y-116752474D01*
X232695060Y-116820060D01*
X232693426Y-116818027D01*
X232638245Y-116849904D01*
X232561117Y-116849922D01*
X232506300Y-116818282D01*
X232504585Y-116820415D01*
X232366937Y-116709744D01*
X232353433Y-116701108D01*
X232202462Y-116626165D01*
X232187403Y-116620625D01*
X232022419Y-116579490D01*
X232009479Y-116577452D01*
X231976051Y-116575173D01*
X231970973Y-116575000D01*
X231969616Y-116575000D01*
X231954145Y-116579145D01*
X231950000Y-116594616D01*
X231950000Y-118051000D01*
X231930038Y-118125500D01*
X231875500Y-118180038D01*
X231801000Y-118200000D01*
X230569616Y-118200000D01*
X230554145Y-118204145D01*
X230550000Y-118219616D01*
X230550000Y-118448516D01*
X230549259Y-118448516D01*
X230532582Y-118520536D01*
X230479944Y-118576910D01*
X230401068Y-118599500D01*
X230126434Y-118599500D01*
X230123896Y-118599673D01*
X230090449Y-118601953D01*
X230090448Y-118601953D01*
X230083893Y-118602400D01*
X229904592Y-118647105D01*
X229846384Y-118676000D01*
X229746301Y-118725681D01*
X229746298Y-118725683D01*
X229739074Y-118729269D01*
X229732786Y-118734325D01*
X229732784Y-118734326D01*
X229624091Y-118821718D01*
X229595060Y-118845060D01*
X229590001Y-118851352D01*
X229585494Y-118855859D01*
X229518699Y-118894423D01*
X229480135Y-118899500D01*
X227909508Y-118899500D01*
X227835008Y-118879538D01*
X227800044Y-118851476D01*
X227797255Y-118847938D01*
X227613160Y-118674758D01*
X227405489Y-118530691D01*
X227178805Y-118418903D01*
X227173546Y-118417219D01*
X227173542Y-118417218D01*
X226943354Y-118343535D01*
X226938087Y-118341849D01*
X226688624Y-118301221D01*
X226554274Y-118299462D01*
X226441425Y-118297985D01*
X226441420Y-118297985D01*
X226435896Y-118297913D01*
X226430425Y-118298658D01*
X226430418Y-118298658D01*
X226284522Y-118318514D01*
X226185455Y-118331996D01*
X226180142Y-118333544D01*
X226180140Y-118333545D01*
X226104285Y-118355655D01*
X225942803Y-118402723D01*
X225937774Y-118405041D01*
X225937775Y-118405041D01*
X225718288Y-118506225D01*
X225718281Y-118506229D01*
X225713270Y-118508539D01*
X225501899Y-118647120D01*
X225497783Y-118650794D01*
X225497780Y-118650796D01*
X225439963Y-118702400D01*
X225313333Y-118815421D01*
X225309805Y-118819663D01*
X225309803Y-118819665D01*
X225263782Y-118875000D01*
X225151715Y-119009746D01*
X225132092Y-119042084D01*
X225023464Y-119221096D01*
X225023461Y-119221102D01*
X225020595Y-119225825D01*
X225018458Y-119230921D01*
X225018456Y-119230925D01*
X224924992Y-119453812D01*
X224922854Y-119458911D01*
X224921494Y-119464266D01*
X224921492Y-119464272D01*
X224912056Y-119501428D01*
X224860639Y-119703883D01*
X224860085Y-119709385D01*
X224854793Y-119761943D01*
X224835316Y-119955361D01*
X224847443Y-120207820D01*
X224848523Y-120213248D01*
X224891755Y-120430590D01*
X224896752Y-120455713D01*
X224898618Y-120460910D01*
X224898619Y-120460914D01*
X224961819Y-120636939D01*
X224982160Y-120693595D01*
X224984779Y-120698469D01*
X225098937Y-120910926D01*
X225101792Y-120916240D01*
X225253018Y-121118756D01*
X225256949Y-121122653D01*
X225256950Y-121122654D01*
X225314860Y-121180061D01*
X225432517Y-121296696D01*
X225501741Y-121347453D01*
X225631884Y-121442878D01*
X225631890Y-121442882D01*
X225636346Y-121446149D01*
X225641239Y-121448723D01*
X225641240Y-121448724D01*
X225855129Y-121561257D01*
X225855134Y-121561259D01*
X225860026Y-121563833D01*
X225865247Y-121565656D01*
X225865251Y-121565658D01*
X226022187Y-121620462D01*
X226098644Y-121647162D01*
X226346958Y-121694306D01*
X226352481Y-121694523D01*
X226593988Y-121704012D01*
X226593989Y-121704012D01*
X226599513Y-121704229D01*
X226605009Y-121703627D01*
X226605011Y-121703627D01*
X226845254Y-121677316D01*
X226850760Y-121676713D01*
X226856109Y-121675305D01*
X226856113Y-121675304D01*
X226983826Y-121641680D01*
X227095181Y-121612363D01*
X227327405Y-121512591D01*
X227542331Y-121379591D01*
X227546537Y-121376030D01*
X227546543Y-121376026D01*
X227720196Y-121229017D01*
X227735238Y-121216283D01*
X227738881Y-121212128D01*
X227738888Y-121212122D01*
X227792264Y-121151258D01*
X227856393Y-121108408D01*
X227904288Y-121100500D01*
X229332069Y-121100500D01*
X229406569Y-121120462D01*
X229461107Y-121175000D01*
X229465530Y-121183249D01*
X229479269Y-121210926D01*
X229484325Y-121217214D01*
X229484326Y-121217216D01*
X229556129Y-121306520D01*
X229595060Y-121354940D01*
X229601352Y-121359999D01*
X229716891Y-121452895D01*
X229739074Y-121470731D01*
X229746298Y-121474317D01*
X229746301Y-121474319D01*
X229799043Y-121500500D01*
X229904592Y-121552895D01*
X230083893Y-121597600D01*
X230090448Y-121598047D01*
X230090449Y-121598047D01*
X230123896Y-121600327D01*
X230126434Y-121600500D01*
X230128978Y-121600500D01*
X230131504Y-121600586D01*
X230131471Y-121601566D01*
X230201994Y-121620462D01*
X230256532Y-121675000D01*
X230276494Y-121749500D01*
X230276149Y-121759637D01*
X230275173Y-121773954D01*
X230275000Y-121779027D01*
X230275000Y-121980384D01*
X230279145Y-121995855D01*
X230294616Y-122000000D01*
X231538500Y-122000000D01*
X231613000Y-122019962D01*
X231667538Y-122074500D01*
X231687500Y-122149000D01*
X231687500Y-123580384D01*
X231691645Y-123595855D01*
X231707116Y-123600000D01*
X231720973Y-123600000D01*
X231726051Y-123599827D01*
X231759479Y-123597548D01*
X231772419Y-123595510D01*
X231937403Y-123554375D01*
X231952462Y-123548835D01*
X232103433Y-123473892D01*
X232116942Y-123465253D01*
X232206239Y-123393457D01*
X232276808Y-123362333D01*
X232353485Y-123370663D01*
X232392966Y-123393458D01*
X232482784Y-123465674D01*
X232489074Y-123470731D01*
X232496298Y-123474317D01*
X232496301Y-123474319D01*
X232572405Y-123512097D01*
X232654592Y-123552895D01*
X232833893Y-123597600D01*
X232840448Y-123598047D01*
X232840449Y-123598047D01*
X232869099Y-123600000D01*
X232876434Y-123600500D01*
X233548566Y-123600500D01*
X233548566Y-123601250D01*
X233620556Y-123617930D01*
X233676922Y-123670576D01*
X233699500Y-123749434D01*
X233699500Y-123867866D01*
X233696307Y-123897504D01*
X233694870Y-123901994D01*
X233694024Y-123909041D01*
X233694023Y-123909043D01*
X233687813Y-123960741D01*
X233686115Y-123971528D01*
X233674770Y-124029622D01*
X233674500Y-124035143D01*
X233674500Y-124062651D01*
X233673436Y-124080422D01*
X233669824Y-124110491D01*
X233672208Y-124144159D01*
X233674128Y-124171280D01*
X233674500Y-124181803D01*
X233674500Y-124864457D01*
X233658961Y-124930707D01*
X233650693Y-124947363D01*
X233647105Y-124954592D01*
X233602400Y-125133893D01*
X233601953Y-125140448D01*
X233601953Y-125140449D01*
X233600855Y-125156553D01*
X233599500Y-125176434D01*
X233599500Y-126623566D01*
X233601182Y-126648234D01*
X233586334Y-126723917D01*
X233535633Y-126782039D01*
X233462663Y-126807023D01*
X233416481Y-126802942D01*
X233322419Y-126779490D01*
X233309479Y-126777452D01*
X233276051Y-126775173D01*
X233270973Y-126775000D01*
X233148915Y-126775000D01*
X233074415Y-126755038D01*
X233019877Y-126700500D01*
X233000654Y-126623516D01*
X233000000Y-126623516D01*
X233000000Y-126219616D01*
X232995855Y-126204145D01*
X232980384Y-126200000D01*
X230669616Y-126200000D01*
X230654145Y-126204145D01*
X230650000Y-126219616D01*
X230650000Y-126620962D01*
X230650173Y-126626051D01*
X230652452Y-126659479D01*
X230654490Y-126672419D01*
X230695625Y-126837403D01*
X230701165Y-126852462D01*
X230776108Y-127003433D01*
X230784744Y-127016937D01*
X230890361Y-127148299D01*
X230901701Y-127159639D01*
X231033063Y-127265256D01*
X231046567Y-127273892D01*
X231197538Y-127348835D01*
X231212597Y-127354375D01*
X231377581Y-127395510D01*
X231390521Y-127397548D01*
X231423949Y-127399827D01*
X231429027Y-127400000D01*
X231701085Y-127400000D01*
X231775585Y-127419962D01*
X231830123Y-127474500D01*
X231849346Y-127551484D01*
X231850000Y-127551484D01*
X231850000Y-127780384D01*
X231854145Y-127795855D01*
X231869616Y-127800000D01*
X233101000Y-127800000D01*
X233175500Y-127819962D01*
X233230038Y-127874500D01*
X233250000Y-127949000D01*
X233250000Y-129405384D01*
X233254145Y-129420855D01*
X233269616Y-129425000D01*
X233270973Y-129425000D01*
X233276051Y-129424827D01*
X233309479Y-129422548D01*
X233322419Y-129420510D01*
X233487403Y-129379375D01*
X233502462Y-129373835D01*
X233584249Y-129333235D01*
X233659855Y-129317990D01*
X233732955Y-129342590D01*
X233783961Y-129400445D01*
X233799500Y-129466696D01*
X233799500Y-130982440D01*
X233779538Y-131056940D01*
X233755859Y-131087799D01*
X233146055Y-131697603D01*
X233138058Y-131705035D01*
X233133430Y-131709030D01*
X233127640Y-131713137D01*
X233122730Y-131718266D01*
X233122729Y-131718267D01*
X233064211Y-131779396D01*
X233061938Y-131781720D01*
X232987799Y-131855859D01*
X232921004Y-131894423D01*
X232882440Y-131899500D01*
X230392088Y-131899500D01*
X230317588Y-131879538D01*
X230263050Y-131825000D01*
X230243088Y-131750500D01*
X230263050Y-131676000D01*
X230278031Y-131654625D01*
X230337667Y-131583679D01*
X230343846Y-131575174D01*
X230480656Y-131355809D01*
X230485576Y-131346515D01*
X230590110Y-131110063D01*
X230593668Y-131100182D01*
X230663849Y-130851341D01*
X230665976Y-130841067D01*
X230700588Y-130583376D01*
X230701214Y-130575800D01*
X230704734Y-130463801D01*
X230704585Y-130456212D01*
X230686222Y-130196856D01*
X230684741Y-130186455D01*
X230630328Y-129933720D01*
X230627391Y-129923611D01*
X230537916Y-129681079D01*
X230533585Y-129671486D01*
X230410820Y-129443960D01*
X230405194Y-129435095D01*
X230350566Y-129361135D01*
X230338038Y-129351152D01*
X230329924Y-129354340D01*
X228905359Y-130778905D01*
X228838564Y-130817469D01*
X228761436Y-130817469D01*
X228694641Y-130778905D01*
X227273898Y-129358162D01*
X227260027Y-129350154D01*
X227251544Y-129355051D01*
X227227795Y-129385176D01*
X227221888Y-129393868D01*
X227092037Y-129617422D01*
X227087411Y-129626865D01*
X226990351Y-129866494D01*
X226987109Y-129876471D01*
X226924781Y-130127391D01*
X226922975Y-130137741D01*
X226896623Y-130394932D01*
X226896294Y-130405426D01*
X226906443Y-130663758D01*
X226907597Y-130674212D01*
X226954044Y-130928531D01*
X226956661Y-130938725D01*
X227038475Y-131183952D01*
X227042502Y-131193673D01*
X227158058Y-131424936D01*
X227163409Y-131433984D01*
X227310399Y-131646660D01*
X227318955Y-131657340D01*
X227349956Y-131727963D01*
X227341491Y-131804626D01*
X227295830Y-131866785D01*
X227225207Y-131897786D01*
X227202670Y-131899500D01*
X224592743Y-131899500D01*
X224518243Y-131879538D01*
X224463705Y-131825000D01*
X224443743Y-131750500D01*
X224463705Y-131676000D01*
X224478686Y-131654625D01*
X224538080Y-131583967D01*
X224541465Y-131579940D01*
X224683887Y-131351572D01*
X224792712Y-131105416D01*
X224832079Y-130965832D01*
X224864340Y-130851443D01*
X224864341Y-130851438D01*
X224865767Y-130846382D01*
X224883456Y-130714684D01*
X224901089Y-130583407D01*
X224901089Y-130583402D01*
X224901595Y-130579638D01*
X224901716Y-130575800D01*
X224905236Y-130463801D01*
X224905236Y-130463792D01*
X224905355Y-130460000D01*
X224899217Y-130373299D01*
X224886719Y-130196785D01*
X224886719Y-130196783D01*
X224886347Y-130191533D01*
X224832193Y-129940001D01*
X224830810Y-129933576D01*
X224830808Y-129933568D01*
X224829700Y-129928423D01*
X224818262Y-129897419D01*
X224738372Y-129680865D01*
X224738370Y-129680861D01*
X224736547Y-129675919D01*
X224619762Y-129459479D01*
X224611243Y-129443691D01*
X224611241Y-129443689D01*
X224608744Y-129439060D01*
X224448843Y-129222571D01*
X224411503Y-129184639D01*
X224355334Y-129127581D01*
X224309441Y-129080962D01*
X224271404Y-129013868D01*
X224272009Y-128936742D01*
X224280549Y-128922084D01*
X227691169Y-128922084D01*
X227694060Y-128929796D01*
X228786129Y-130021865D01*
X228800000Y-130029873D01*
X228813871Y-130021865D01*
X229901140Y-128934596D01*
X229909148Y-128920725D01*
X229904530Y-128912726D01*
X229849994Y-128871105D01*
X229841214Y-128865337D01*
X229615639Y-128739009D01*
X229606136Y-128734537D01*
X229377211Y-128645973D01*
X231850000Y-128645973D01*
X231850173Y-128651051D01*
X231852452Y-128684479D01*
X231854490Y-128697419D01*
X231895625Y-128862403D01*
X231901165Y-128877462D01*
X231976108Y-129028433D01*
X231984744Y-129041937D01*
X232090361Y-129173299D01*
X232101701Y-129184639D01*
X232233063Y-129290256D01*
X232246567Y-129298892D01*
X232397538Y-129373835D01*
X232412597Y-129379375D01*
X232577581Y-129420510D01*
X232590521Y-129422548D01*
X232623949Y-129424827D01*
X232629027Y-129425000D01*
X232630384Y-129425000D01*
X232645855Y-129420855D01*
X232650000Y-129405384D01*
X232650000Y-128419616D01*
X232645855Y-128404145D01*
X232630384Y-128400000D01*
X231869616Y-128400000D01*
X231854145Y-128404145D01*
X231850000Y-128419616D01*
X231850000Y-128645973D01*
X229377211Y-128645973D01*
X229365021Y-128641257D01*
X229354970Y-128638165D01*
X229103117Y-128579789D01*
X229092734Y-128578144D01*
X228835177Y-128555837D01*
X228824654Y-128555672D01*
X228566515Y-128569878D01*
X228559494Y-128570765D01*
X228483079Y-128560301D01*
X228422134Y-128513031D01*
X228392990Y-128441621D01*
X228403454Y-128365206D01*
X228424692Y-128329577D01*
X228515256Y-128216937D01*
X228523892Y-128203433D01*
X228598835Y-128052462D01*
X228604375Y-128037403D01*
X228645510Y-127872419D01*
X228647548Y-127859479D01*
X228649827Y-127826051D01*
X228650000Y-127820973D01*
X228650000Y-127419616D01*
X228645855Y-127404145D01*
X228630384Y-127400000D01*
X227794616Y-127400000D01*
X227779145Y-127404145D01*
X227775000Y-127419616D01*
X227775000Y-128580384D01*
X227779552Y-128597372D01*
X227804779Y-128622599D01*
X227843343Y-128689394D01*
X227843343Y-128766522D01*
X227804779Y-128833317D01*
X227786051Y-128849185D01*
X227701345Y-128909717D01*
X227691169Y-128922084D01*
X224280549Y-128922084D01*
X224310266Y-128871076D01*
X224537201Y-128644141D01*
X224603996Y-128605577D01*
X224642560Y-128600500D01*
X224923566Y-128600500D01*
X224930901Y-128600000D01*
X224959551Y-128598047D01*
X224959552Y-128598047D01*
X224966107Y-128597600D01*
X225145408Y-128552895D01*
X225228088Y-128511852D01*
X225303699Y-128474319D01*
X225303702Y-128474317D01*
X225310926Y-128470731D01*
X225317736Y-128465256D01*
X225448648Y-128359999D01*
X225454940Y-128354940D01*
X225495539Y-128304445D01*
X225565674Y-128217216D01*
X225565675Y-128217214D01*
X225570731Y-128210926D01*
X225595250Y-128161534D01*
X225649308Y-128052633D01*
X225652895Y-128045408D01*
X225697600Y-127866107D01*
X225700500Y-127823566D01*
X225700500Y-127820973D01*
X226300000Y-127820973D01*
X226300173Y-127826051D01*
X226302452Y-127859479D01*
X226304490Y-127872419D01*
X226345625Y-128037403D01*
X226351165Y-128052462D01*
X226426108Y-128203433D01*
X226434744Y-128216937D01*
X226540361Y-128348299D01*
X226551701Y-128359639D01*
X226683063Y-128465256D01*
X226696567Y-128473892D01*
X226847538Y-128548835D01*
X226862597Y-128554375D01*
X227027581Y-128595510D01*
X227040521Y-128597548D01*
X227073949Y-128599827D01*
X227079027Y-128600000D01*
X227155384Y-128600000D01*
X227170855Y-128595855D01*
X227175000Y-128580384D01*
X227175000Y-127419616D01*
X227170855Y-127404145D01*
X227155384Y-127400000D01*
X226319616Y-127400000D01*
X226304145Y-127404145D01*
X226300000Y-127419616D01*
X226300000Y-127820973D01*
X225700500Y-127820973D01*
X225700500Y-126780384D01*
X226300000Y-126780384D01*
X226304145Y-126795855D01*
X226319616Y-126800000D01*
X227155384Y-126800000D01*
X227170855Y-126795855D01*
X227175000Y-126780384D01*
X227775000Y-126780384D01*
X227779145Y-126795855D01*
X227794616Y-126800000D01*
X228630384Y-126800000D01*
X228645855Y-126795855D01*
X228650000Y-126780384D01*
X228650000Y-126379027D01*
X228649827Y-126373949D01*
X228647548Y-126340521D01*
X228645510Y-126327581D01*
X228604375Y-126162597D01*
X228598835Y-126147538D01*
X228523892Y-125996567D01*
X228515256Y-125983063D01*
X228409639Y-125851701D01*
X228398299Y-125840361D01*
X228266937Y-125734744D01*
X228253433Y-125726108D01*
X228102462Y-125651165D01*
X228087403Y-125645625D01*
X227922419Y-125604490D01*
X227909479Y-125602452D01*
X227876051Y-125600173D01*
X227870973Y-125600000D01*
X227794616Y-125600000D01*
X227779145Y-125604145D01*
X227775000Y-125619616D01*
X227775000Y-126780384D01*
X227175000Y-126780384D01*
X227175000Y-125619616D01*
X227170855Y-125604145D01*
X227155384Y-125600000D01*
X227079027Y-125600000D01*
X227073949Y-125600173D01*
X227040521Y-125602452D01*
X227027581Y-125604490D01*
X226862597Y-125645625D01*
X226847538Y-125651165D01*
X226696567Y-125726108D01*
X226683063Y-125734744D01*
X226551701Y-125840361D01*
X226540361Y-125851701D01*
X226434744Y-125983063D01*
X226426108Y-125996567D01*
X226351165Y-126147538D01*
X226345625Y-126162597D01*
X226304490Y-126327581D01*
X226302452Y-126340521D01*
X226300173Y-126373949D01*
X226300000Y-126379027D01*
X226300000Y-126780384D01*
X225700500Y-126780384D01*
X225700500Y-126376434D01*
X225697600Y-126333893D01*
X225652895Y-126154592D01*
X225588544Y-126024958D01*
X225574319Y-125996301D01*
X225574317Y-125996298D01*
X225570731Y-125989074D01*
X225555534Y-125970172D01*
X225459999Y-125851352D01*
X225454940Y-125845060D01*
X225441503Y-125834256D01*
X225317216Y-125734326D01*
X225317214Y-125734325D01*
X225310926Y-125729269D01*
X225303702Y-125725683D01*
X225303699Y-125725681D01*
X225227595Y-125687903D01*
X225145408Y-125647105D01*
X224966107Y-125602400D01*
X224959552Y-125601953D01*
X224959551Y-125601953D01*
X224926104Y-125599673D01*
X224923566Y-125599500D01*
X224126434Y-125599500D01*
X224123896Y-125599673D01*
X224090449Y-125601953D01*
X224090448Y-125601953D01*
X224083893Y-125602400D01*
X223904592Y-125647105D01*
X223822405Y-125687903D01*
X223746301Y-125725681D01*
X223746298Y-125725683D01*
X223739074Y-125729269D01*
X223732786Y-125734325D01*
X223732784Y-125734326D01*
X223608497Y-125834256D01*
X223595060Y-125845060D01*
X223590001Y-125851352D01*
X223494467Y-125970172D01*
X223479269Y-125989074D01*
X223475683Y-125996298D01*
X223475681Y-125996301D01*
X223461456Y-126024958D01*
X223397105Y-126154592D01*
X223352400Y-126333893D01*
X223349500Y-126376434D01*
X223349500Y-126657440D01*
X223329538Y-126731940D01*
X223305859Y-126762799D01*
X222296055Y-127772603D01*
X222288058Y-127780035D01*
X222283430Y-127784030D01*
X222277640Y-127788137D01*
X222272730Y-127793266D01*
X222272729Y-127793267D01*
X222214211Y-127854396D01*
X222211938Y-127856720D01*
X222184728Y-127883930D01*
X222180601Y-127888927D01*
X222173351Y-127897078D01*
X222137332Y-127934704D01*
X222137327Y-127934710D01*
X222132425Y-127939831D01*
X222115144Y-127966594D01*
X222104862Y-127980643D01*
X222089096Y-127999734D01*
X222089091Y-127999742D01*
X222084575Y-128005210D01*
X222056193Y-128057158D01*
X222050622Y-128066521D01*
X222018515Y-128116246D01*
X222015865Y-128122820D01*
X222015862Y-128122827D01*
X222006609Y-128145788D01*
X221999166Y-128161534D01*
X221987290Y-128183269D01*
X221987286Y-128183278D01*
X221983890Y-128189494D01*
X221981727Y-128196250D01*
X221981727Y-128196251D01*
X221965848Y-128245858D01*
X221962146Y-128256116D01*
X221940019Y-128311019D01*
X221938660Y-128317979D01*
X221933914Y-128342282D01*
X221929583Y-128359150D01*
X221925336Y-128372419D01*
X221919870Y-128389494D01*
X221919024Y-128396538D01*
X221919023Y-128396542D01*
X221912813Y-128448241D01*
X221911115Y-128459028D01*
X221899770Y-128517122D01*
X221899500Y-128522643D01*
X221899500Y-128550151D01*
X221898436Y-128567922D01*
X221894824Y-128597991D01*
X221898368Y-128648047D01*
X221899128Y-128658780D01*
X221899500Y-128669303D01*
X221899500Y-128833762D01*
X221879538Y-128908262D01*
X221837132Y-128954988D01*
X221785481Y-128991899D01*
X221590740Y-129177672D01*
X221587478Y-129181810D01*
X221587476Y-129181812D01*
X221552006Y-129226806D01*
X221424118Y-129389032D01*
X221387683Y-129451760D01*
X221307704Y-129589454D01*
X221288939Y-129621760D01*
X221187900Y-129871213D01*
X221174884Y-129923611D01*
X221131988Y-130096301D01*
X221123017Y-130132414D01*
X221122480Y-130137655D01*
X221122479Y-130137661D01*
X221112347Y-130236553D01*
X221095585Y-130400151D01*
X221106152Y-130669083D01*
X221154505Y-130933843D01*
X221156175Y-130938847D01*
X221156175Y-130938849D01*
X221211747Y-131105416D01*
X221239682Y-131189148D01*
X221359981Y-131429905D01*
X221513003Y-131651309D01*
X221516585Y-131655184D01*
X221692118Y-131845075D01*
X221692122Y-131845079D01*
X221695695Y-131848944D01*
X221836355Y-131963459D01*
X221844572Y-131970149D01*
X221889743Y-132032666D01*
X221899500Y-132085698D01*
X221899500Y-132750500D01*
X221879538Y-132825000D01*
X221825000Y-132879538D01*
X221750500Y-132899500D01*
X221075746Y-132899500D01*
X221001246Y-132879538D01*
X220982389Y-132866626D01*
X220935926Y-132829269D01*
X220928702Y-132825683D01*
X220928699Y-132825681D01*
X220852595Y-132787903D01*
X220770408Y-132747105D01*
X220591107Y-132702400D01*
X220584552Y-132701953D01*
X220584551Y-132701953D01*
X220551104Y-132699673D01*
X220548566Y-132699500D01*
X219876434Y-132699500D01*
X219873896Y-132699673D01*
X219840449Y-132701953D01*
X219840448Y-132701953D01*
X219833893Y-132702400D01*
X219654592Y-132747105D01*
X219572405Y-132787903D01*
X219496301Y-132825681D01*
X219496298Y-132825683D01*
X219489074Y-132829269D01*
X219482786Y-132834325D01*
X219482784Y-132834326D01*
X219393364Y-132906222D01*
X219322795Y-132937347D01*
X219246118Y-132929017D01*
X219206636Y-132906222D01*
X219117216Y-132834326D01*
X219117214Y-132834325D01*
X219110926Y-132829269D01*
X219103702Y-132825683D01*
X219103699Y-132825681D01*
X219027595Y-132787903D01*
X218945408Y-132747105D01*
X218766107Y-132702400D01*
X218759550Y-132701953D01*
X218741244Y-132700705D01*
X218668274Y-132675722D01*
X218617572Y-132617601D01*
X218602413Y-132555300D01*
X218602235Y-132547105D01*
X218600535Y-132469214D01*
X218600500Y-132465964D01*
X218600500Y-132427531D01*
X218600165Y-132424016D01*
X218600164Y-132424004D01*
X218599886Y-132421095D01*
X218599247Y-132410192D01*
X218598111Y-132358109D01*
X218598111Y-132358106D01*
X218597956Y-132351019D01*
X218591249Y-132319864D01*
X218588586Y-132302658D01*
X218586235Y-132278018D01*
X218585561Y-132270954D01*
X218568903Y-132214172D01*
X218566215Y-132203591D01*
X218555249Y-132152654D01*
X218553758Y-132145728D01*
X218545052Y-132125266D01*
X218541284Y-132116410D01*
X218535415Y-132100020D01*
X218528442Y-132076252D01*
X218526447Y-132069451D01*
X218515424Y-132048047D01*
X218499351Y-132016840D01*
X218494711Y-132006957D01*
X218474317Y-131959029D01*
X218471538Y-131952498D01*
X218453745Y-131926069D01*
X218444881Y-131911081D01*
X218433545Y-131889071D01*
X218433544Y-131889070D01*
X218430295Y-131882761D01*
X218425916Y-131877186D01*
X218425912Y-131877180D01*
X218393739Y-131836223D01*
X218387313Y-131827394D01*
X218357265Y-131782761D01*
X218357256Y-131782749D01*
X218354261Y-131778301D01*
X218350548Y-131774206D01*
X218331096Y-131754754D01*
X218319282Y-131741435D01*
X218304955Y-131723196D01*
X218300576Y-131717621D01*
X218295228Y-131712981D01*
X218295225Y-131712977D01*
X218254547Y-131677679D01*
X218246843Y-131670501D01*
X217648513Y-131072171D01*
X217609949Y-131005376D01*
X217605331Y-130978502D01*
X217602201Y-130938725D01*
X217585683Y-130728852D01*
X217526873Y-130483889D01*
X217490014Y-130394903D01*
X217432708Y-130256553D01*
X217432706Y-130256550D01*
X217430466Y-130251141D01*
X217298836Y-130036341D01*
X217286473Y-130021865D01*
X217139029Y-129849231D01*
X217135224Y-129844776D01*
X217097434Y-129812500D01*
X216948112Y-129684967D01*
X216948110Y-129684966D01*
X216943659Y-129681164D01*
X216728859Y-129549534D01*
X216723450Y-129547294D01*
X216723447Y-129547292D01*
X216542686Y-129472419D01*
X216496111Y-129453127D01*
X216251148Y-129394317D01*
X216183997Y-129389032D01*
X216005832Y-129375010D01*
X216000000Y-129374551D01*
X215994168Y-129375010D01*
X215816004Y-129389032D01*
X215748852Y-129394317D01*
X215503889Y-129453127D01*
X215457314Y-129472419D01*
X215276553Y-129547292D01*
X215276550Y-129547294D01*
X215271141Y-129549534D01*
X215056341Y-129681164D01*
X215051890Y-129684966D01*
X215051888Y-129684967D01*
X214902566Y-129812500D01*
X214864776Y-129844776D01*
X214860971Y-129849231D01*
X214713528Y-130021865D01*
X214701164Y-130036341D01*
X214569534Y-130251141D01*
X214567294Y-130256550D01*
X214567292Y-130256553D01*
X214509986Y-130394903D01*
X214473127Y-130483889D01*
X214414317Y-130728852D01*
X214394551Y-130980000D01*
X214414317Y-131231148D01*
X214473127Y-131476111D01*
X214494210Y-131527010D01*
X214564872Y-131697603D01*
X214569534Y-131708859D01*
X214701164Y-131923659D01*
X214704966Y-131928110D01*
X214704967Y-131928112D01*
X214860971Y-132110769D01*
X214864776Y-132115224D01*
X214869231Y-132119029D01*
X215046703Y-132270604D01*
X215056341Y-132278836D01*
X215112506Y-132313254D01*
X215165596Y-132369200D01*
X215183601Y-132444197D01*
X215161695Y-132518149D01*
X215100902Y-132573757D01*
X214996305Y-132625679D01*
X214996302Y-132625681D01*
X214989074Y-132629269D01*
X214982786Y-132634325D01*
X214982784Y-132634326D01*
X214900226Y-132700705D01*
X214845060Y-132745060D01*
X214840001Y-132751352D01*
X214780239Y-132825681D01*
X214729269Y-132889074D01*
X214725683Y-132896298D01*
X214725681Y-132896301D01*
X214709441Y-132929017D01*
X214647105Y-133054592D01*
X214602400Y-133233893D01*
X214599500Y-133276434D01*
X214599500Y-134723566D01*
X214599673Y-134726104D01*
X214601123Y-134747367D01*
X214602400Y-134766107D01*
X214647105Y-134945408D01*
X214663794Y-134979027D01*
X214725418Y-135103168D01*
X214729269Y-135110926D01*
X214734325Y-135117214D01*
X214734326Y-135117216D01*
X214781220Y-135175540D01*
X214845060Y-135254940D01*
X214851352Y-135259999D01*
X214982265Y-135365256D01*
X214989074Y-135370731D01*
X214996298Y-135374317D01*
X214996301Y-135374319D01*
X215040022Y-135396022D01*
X215154592Y-135452895D01*
X215333893Y-135497600D01*
X215340448Y-135498047D01*
X215340449Y-135498047D01*
X215369099Y-135500000D01*
X215376434Y-135500500D01*
X216173566Y-135500500D01*
X216180901Y-135500000D01*
X216209551Y-135498047D01*
X216209552Y-135498047D01*
X216216107Y-135497600D01*
X216395408Y-135452895D01*
X216509978Y-135396022D01*
X216553699Y-135374319D01*
X216553702Y-135374317D01*
X216560926Y-135370731D01*
X216567736Y-135365256D01*
X216698648Y-135259999D01*
X216704940Y-135254940D01*
X216784381Y-135156136D01*
X216846620Y-135110584D01*
X216900502Y-135100500D01*
X217409829Y-135100500D01*
X217431209Y-135102042D01*
X217445996Y-135104186D01*
X217470846Y-135103036D01*
X217517629Y-135100871D01*
X217592972Y-135117368D01*
X217617877Y-135133588D01*
X217664074Y-135170731D01*
X217671298Y-135174317D01*
X217671301Y-135174319D01*
X217704472Y-135190785D01*
X217829592Y-135252895D01*
X218008893Y-135297600D01*
X218015448Y-135298047D01*
X218015449Y-135298047D01*
X218048896Y-135300327D01*
X218051434Y-135300500D01*
X218723566Y-135300500D01*
X218726104Y-135300327D01*
X218759551Y-135298047D01*
X218759552Y-135298047D01*
X218766107Y-135297600D01*
X218945408Y-135252895D01*
X219070528Y-135190785D01*
X219103699Y-135174319D01*
X219103702Y-135174317D01*
X219110926Y-135170731D01*
X219124831Y-135159551D01*
X219206636Y-135093778D01*
X219277205Y-135062653D01*
X219353882Y-135070983D01*
X219393364Y-135093778D01*
X219475169Y-135159551D01*
X219489074Y-135170731D01*
X219496298Y-135174317D01*
X219496301Y-135174319D01*
X219529472Y-135190785D01*
X219654592Y-135252895D01*
X219833893Y-135297600D01*
X219840448Y-135298047D01*
X219840449Y-135298047D01*
X219873896Y-135300327D01*
X219876434Y-135300500D01*
X220548566Y-135300500D01*
X220551104Y-135300327D01*
X220584551Y-135298047D01*
X220584552Y-135298047D01*
X220591107Y-135297600D01*
X220770408Y-135252895D01*
X220895527Y-135190785D01*
X220971135Y-135175540D01*
X221044234Y-135200141D01*
X221095240Y-135257995D01*
X221110003Y-135339432D01*
X221095585Y-135480151D01*
X221095792Y-135485421D01*
X221095792Y-135485423D01*
X221101096Y-135620408D01*
X221106152Y-135749083D01*
X221154505Y-136013843D01*
X221156175Y-136018847D01*
X221156175Y-136018849D01*
X221211747Y-136185416D01*
X221239682Y-136269148D01*
X221359981Y-136509905D01*
X221513003Y-136731309D01*
X221516585Y-136735184D01*
X221692118Y-136925075D01*
X221692122Y-136925079D01*
X221695695Y-136928944D01*
X221904411Y-137098866D01*
X222134987Y-137237684D01*
X222302962Y-137308812D01*
X222376857Y-137340102D01*
X222382822Y-137342628D01*
X222387921Y-137343980D01*
X222387924Y-137343981D01*
X222565724Y-137391124D01*
X222642972Y-137411606D01*
X222910245Y-137443240D01*
X223179310Y-137436899D01*
X223327545Y-137412226D01*
X223439607Y-137393574D01*
X223439611Y-137393573D01*
X223444796Y-137392710D01*
X223598875Y-137343981D01*
X223696394Y-137313140D01*
X223696397Y-137313139D01*
X223701408Y-137311554D01*
X223706142Y-137309281D01*
X223706149Y-137309278D01*
X223932677Y-137200500D01*
X223944025Y-137195051D01*
X223948402Y-137192127D01*
X223948408Y-137192123D01*
X224114712Y-137081002D01*
X227689125Y-137081002D01*
X227694324Y-137090008D01*
X227700619Y-137095132D01*
X227709212Y-137101171D01*
X227930700Y-137234518D01*
X227940066Y-137239290D01*
X228178139Y-137340102D01*
X228188077Y-137343504D01*
X228437963Y-137409760D01*
X228448307Y-137411733D01*
X228705042Y-137442119D01*
X228715527Y-137442614D01*
X228973994Y-137436523D01*
X228984464Y-137435533D01*
X229239490Y-137393086D01*
X229249693Y-137390636D01*
X229496210Y-137312674D01*
X229505963Y-137308812D01*
X229739025Y-137196896D01*
X229748158Y-137191687D01*
X229899256Y-137090726D01*
X229909815Y-137078686D01*
X229907448Y-137071712D01*
X228813871Y-135978135D01*
X228800000Y-135970127D01*
X228786129Y-135978135D01*
X227697133Y-137067131D01*
X227689125Y-137081002D01*
X224114712Y-137081002D01*
X224125353Y-137073892D01*
X224167806Y-137045526D01*
X224368286Y-136865961D01*
X224541465Y-136659940D01*
X224546133Y-136652456D01*
X224574084Y-136607637D01*
X224683887Y-136431572D01*
X224792712Y-136185416D01*
X224825810Y-136068060D01*
X224864340Y-135931443D01*
X224864341Y-135931438D01*
X224865767Y-135926382D01*
X224883788Y-135792216D01*
X224901089Y-135663407D01*
X224901089Y-135663402D01*
X224901595Y-135659638D01*
X224901743Y-135654940D01*
X224905236Y-135543801D01*
X224905236Y-135543792D01*
X224905355Y-135540000D01*
X224902559Y-135500500D01*
X224886719Y-135276785D01*
X224886719Y-135276783D01*
X224886347Y-135271533D01*
X224856648Y-135133590D01*
X224830810Y-135013576D01*
X224830808Y-135013568D01*
X224829700Y-135008423D01*
X224826186Y-134998897D01*
X224738372Y-134760865D01*
X224738370Y-134760861D01*
X224736547Y-134755919D01*
X224608744Y-134519060D01*
X224475029Y-134338024D01*
X224446824Y-134266238D01*
X224458291Y-134189967D01*
X224506357Y-134129648D01*
X224578143Y-134101443D01*
X224594881Y-134100500D01*
X227208088Y-134100500D01*
X227282588Y-134120462D01*
X227337126Y-134175000D01*
X227357088Y-134249500D01*
X227337126Y-134324000D01*
X227325100Y-134341745D01*
X227227791Y-134465181D01*
X227221890Y-134473864D01*
X227092037Y-134697422D01*
X227087411Y-134706865D01*
X226990351Y-134946494D01*
X226987109Y-134956471D01*
X226924781Y-135207391D01*
X226922975Y-135217741D01*
X226896623Y-135474932D01*
X226896294Y-135485426D01*
X226906443Y-135743758D01*
X226907597Y-135754212D01*
X226954044Y-136008531D01*
X226956660Y-136018720D01*
X227038475Y-136263952D01*
X227042502Y-136273673D01*
X227158058Y-136504936D01*
X227163409Y-136513984D01*
X227249663Y-136638784D01*
X227261869Y-136649153D01*
X227269200Y-136646536D01*
X228694641Y-135221095D01*
X228761436Y-135182531D01*
X228838564Y-135182531D01*
X228905359Y-135221095D01*
X230328282Y-136644018D01*
X230342153Y-136652026D01*
X230347867Y-136648727D01*
X230365629Y-136620247D01*
X230421990Y-136567596D01*
X230497126Y-136550180D01*
X230570904Y-136572666D01*
X230623555Y-136629027D01*
X230631892Y-136647645D01*
X230633662Y-136652456D01*
X230708606Y-136803430D01*
X230717244Y-136816937D01*
X230822861Y-136948299D01*
X230834201Y-136959639D01*
X230965563Y-137065256D01*
X230979067Y-137073892D01*
X231130038Y-137148835D01*
X231145097Y-137154375D01*
X231310081Y-137195510D01*
X231323021Y-137197548D01*
X231356449Y-137199827D01*
X231361527Y-137200000D01*
X231437884Y-137200000D01*
X231453355Y-137195855D01*
X231457500Y-137180384D01*
X232057500Y-137180384D01*
X232061645Y-137195855D01*
X232077116Y-137200000D01*
X232153473Y-137200000D01*
X232158551Y-137199827D01*
X232191979Y-137197548D01*
X232204919Y-137195510D01*
X232369903Y-137154375D01*
X232384962Y-137148835D01*
X232535933Y-137073892D01*
X232549437Y-137065256D01*
X232680799Y-136959639D01*
X232692139Y-136948299D01*
X232797756Y-136816937D01*
X232806394Y-136803430D01*
X232881335Y-136652462D01*
X232886875Y-136637403D01*
X232928010Y-136472419D01*
X232930048Y-136459479D01*
X232932327Y-136426051D01*
X232932500Y-136420973D01*
X232932500Y-136019616D01*
X232928355Y-136004145D01*
X232912884Y-136000000D01*
X232077116Y-136000000D01*
X232061645Y-136004145D01*
X232057500Y-136019616D01*
X232057500Y-137180384D01*
X231457500Y-137180384D01*
X231457500Y-135549000D01*
X231477462Y-135474500D01*
X231532000Y-135419962D01*
X231606500Y-135400000D01*
X232912884Y-135400000D01*
X232928355Y-135395855D01*
X232932500Y-135380384D01*
X232932500Y-134979027D01*
X232932327Y-134973949D01*
X232930048Y-134940521D01*
X232928010Y-134927581D01*
X232886875Y-134762597D01*
X232881335Y-134747538D01*
X232806392Y-134596567D01*
X232797756Y-134583063D01*
X232692139Y-134451701D01*
X232680799Y-134440361D01*
X232587842Y-134365622D01*
X232542290Y-134303382D01*
X232533960Y-134226705D01*
X232565084Y-134156136D01*
X232627324Y-134110584D01*
X232681206Y-134100500D01*
X233295025Y-134100500D01*
X233305939Y-134100900D01*
X233312042Y-134101348D01*
X233319034Y-134102537D01*
X233410786Y-134100535D01*
X233414036Y-134100500D01*
X233452469Y-134100500D01*
X233455984Y-134100165D01*
X233455996Y-134100164D01*
X233458905Y-134099886D01*
X233469808Y-134099247D01*
X233473817Y-134099160D01*
X233485069Y-134098914D01*
X233559986Y-134117247D01*
X233593678Y-134142520D01*
X233735911Y-134284753D01*
X233774475Y-134351548D01*
X233774475Y-134428676D01*
X233746675Y-134483473D01*
X233661769Y-134589074D01*
X233658183Y-134596298D01*
X233658181Y-134596301D01*
X233632600Y-134647835D01*
X233579605Y-134754592D01*
X233534900Y-134933893D01*
X233534453Y-134940448D01*
X233534453Y-134940449D01*
X233533361Y-134956471D01*
X233532000Y-134976434D01*
X233532000Y-136423566D01*
X233534900Y-136466107D01*
X233579605Y-136645408D01*
X233586819Y-136659940D01*
X233658048Y-136803430D01*
X233661769Y-136810926D01*
X233666825Y-136817214D01*
X233666826Y-136817216D01*
X233759209Y-136932116D01*
X233777560Y-136954940D01*
X233783852Y-136959999D01*
X233914765Y-137065256D01*
X233921574Y-137070731D01*
X233928798Y-137074317D01*
X233928801Y-137074319D01*
X233970729Y-137095132D01*
X234087092Y-137152895D01*
X234266393Y-137197600D01*
X234272948Y-137198047D01*
X234272949Y-137198047D01*
X234301599Y-137200000D01*
X234308934Y-137200500D01*
X235106066Y-137200500D01*
X235113401Y-137200000D01*
X235142051Y-137198047D01*
X235142052Y-137198047D01*
X235148607Y-137197600D01*
X235327908Y-137152895D01*
X235444271Y-137095132D01*
X235486199Y-137074319D01*
X235486202Y-137074317D01*
X235493426Y-137070731D01*
X235500236Y-137065256D01*
X235631148Y-136959999D01*
X235637440Y-136954940D01*
X235644650Y-136945973D01*
X243932500Y-136945973D01*
X243932673Y-136951051D01*
X243934952Y-136984479D01*
X243936990Y-136997419D01*
X243978125Y-137162403D01*
X243983665Y-137177462D01*
X244058608Y-137328433D01*
X244067244Y-137341937D01*
X244172861Y-137473299D01*
X244184201Y-137484639D01*
X244315563Y-137590256D01*
X244329067Y-137598892D01*
X244480038Y-137673835D01*
X244495097Y-137679375D01*
X244660081Y-137720510D01*
X244673021Y-137722548D01*
X244706449Y-137724827D01*
X244711527Y-137725000D01*
X244912884Y-137725000D01*
X244928355Y-137720855D01*
X244932500Y-137705384D01*
X245532500Y-137705384D01*
X245536645Y-137720855D01*
X245552116Y-137725000D01*
X245753473Y-137725000D01*
X245758551Y-137724827D01*
X245791979Y-137722548D01*
X245804919Y-137720510D01*
X245969903Y-137679375D01*
X245984962Y-137673835D01*
X246135933Y-137598892D01*
X246149437Y-137590256D01*
X246280799Y-137484639D01*
X246292139Y-137473299D01*
X246397756Y-137341937D01*
X246406392Y-137328433D01*
X246481335Y-137177462D01*
X246486875Y-137162403D01*
X246528010Y-136997419D01*
X246530048Y-136984479D01*
X246532327Y-136951051D01*
X246532500Y-136945973D01*
X246532500Y-136932116D01*
X246528355Y-136916645D01*
X246512884Y-136912500D01*
X245552116Y-136912500D01*
X245536645Y-136916645D01*
X245532500Y-136932116D01*
X245532500Y-137705384D01*
X244932500Y-137705384D01*
X244932500Y-136932116D01*
X244928355Y-136916645D01*
X244912884Y-136912500D01*
X243952116Y-136912500D01*
X243936645Y-136916645D01*
X243932500Y-136932116D01*
X243932500Y-136945973D01*
X235644650Y-136945973D01*
X235655791Y-136932116D01*
X235748174Y-136817216D01*
X235748175Y-136817214D01*
X235753231Y-136810926D01*
X235756953Y-136803430D01*
X235828181Y-136659940D01*
X235835395Y-136645408D01*
X235880100Y-136466107D01*
X235883000Y-136423566D01*
X235883000Y-136142560D01*
X235902962Y-136068060D01*
X235926641Y-136037201D01*
X236119702Y-135844141D01*
X236186497Y-135805577D01*
X236225061Y-135800500D01*
X238444599Y-135800500D01*
X238519099Y-135820462D01*
X238560719Y-135856135D01*
X238620060Y-135929940D01*
X238626352Y-135934999D01*
X238753465Y-136037201D01*
X238764074Y-136045731D01*
X238771298Y-136049317D01*
X238771301Y-136049319D01*
X238847405Y-136087097D01*
X238929592Y-136127895D01*
X239108893Y-136172600D01*
X239115448Y-136173047D01*
X239115449Y-136173047D01*
X239148896Y-136175327D01*
X239151434Y-136175500D01*
X240048566Y-136175500D01*
X240051104Y-136175327D01*
X240084551Y-136173047D01*
X240084552Y-136173047D01*
X240091107Y-136172600D01*
X240270408Y-136127895D01*
X240352595Y-136087097D01*
X240428699Y-136049319D01*
X240428702Y-136049317D01*
X240435926Y-136045731D01*
X240446536Y-136037201D01*
X240573648Y-135934999D01*
X240579940Y-135929940D01*
X240617634Y-135883058D01*
X240690674Y-135792216D01*
X240690675Y-135792214D01*
X240695731Y-135785926D01*
X240711447Y-135754268D01*
X240774308Y-135627633D01*
X240777895Y-135620408D01*
X240822600Y-135441107D01*
X240825500Y-135398566D01*
X240825500Y-134619034D01*
X241129963Y-134619034D01*
X241132187Y-134720973D01*
X241133096Y-134762597D01*
X241134544Y-134828981D01*
X241136037Y-134835914D01*
X241136037Y-134835917D01*
X241171162Y-134999064D01*
X241174500Y-135030424D01*
X241174500Y-135398566D01*
X241177400Y-135441107D01*
X241222105Y-135620408D01*
X241225692Y-135627633D01*
X241288554Y-135754268D01*
X241304269Y-135785926D01*
X241309325Y-135792214D01*
X241309326Y-135792216D01*
X241382366Y-135883058D01*
X241420060Y-135929940D01*
X241426352Y-135934999D01*
X241553465Y-136037201D01*
X241564074Y-136045731D01*
X241571298Y-136049317D01*
X241571301Y-136049319D01*
X241647405Y-136087097D01*
X241729592Y-136127895D01*
X241908893Y-136172600D01*
X241915448Y-136173047D01*
X241915449Y-136173047D01*
X241948896Y-136175327D01*
X241951434Y-136175500D01*
X242848566Y-136175500D01*
X242851104Y-136175327D01*
X242884551Y-136173047D01*
X242884552Y-136173047D01*
X242891107Y-136172600D01*
X243070408Y-136127895D01*
X243152595Y-136087097D01*
X243228699Y-136049319D01*
X243228702Y-136049317D01*
X243235926Y-136045731D01*
X243246536Y-136037201D01*
X243373648Y-135934999D01*
X243379940Y-135929940D01*
X243379944Y-135929945D01*
X243443801Y-135893077D01*
X243482365Y-135888000D01*
X243830945Y-135888000D01*
X243905445Y-135907962D01*
X243959983Y-135962500D01*
X243979945Y-136037000D01*
X243975519Y-136073046D01*
X243936990Y-136227581D01*
X243934952Y-136240521D01*
X243932673Y-136273949D01*
X243932500Y-136279027D01*
X243932500Y-136292884D01*
X243936645Y-136308355D01*
X243952116Y-136312500D01*
X246512884Y-136312500D01*
X246528355Y-136308355D01*
X246532500Y-136292884D01*
X246532500Y-136279027D01*
X246532327Y-136273949D01*
X246530048Y-136240521D01*
X246528010Y-136227581D01*
X246486875Y-136062597D01*
X246481335Y-136047538D01*
X246406392Y-135896567D01*
X246397753Y-135883058D01*
X246325957Y-135793761D01*
X246294833Y-135723192D01*
X246303163Y-135646515D01*
X246325958Y-135607034D01*
X246398174Y-135517216D01*
X246398175Y-135517214D01*
X246403231Y-135510926D01*
X246408493Y-135500327D01*
X246460353Y-135395855D01*
X246485395Y-135345408D01*
X246530100Y-135166107D01*
X246533000Y-135123566D01*
X246533000Y-134451434D01*
X246532827Y-134448896D01*
X246530547Y-134415449D01*
X246530547Y-134415448D01*
X246530100Y-134408893D01*
X246485395Y-134229592D01*
X246431222Y-134120462D01*
X246406819Y-134071301D01*
X246406817Y-134071298D01*
X246403231Y-134064074D01*
X246287440Y-133920060D01*
X246143426Y-133804269D01*
X246136202Y-133800683D01*
X246136199Y-133800681D01*
X246060095Y-133762903D01*
X245977908Y-133722105D01*
X245798607Y-133677400D01*
X245792052Y-133676953D01*
X245792051Y-133676953D01*
X245758604Y-133674673D01*
X245756066Y-133674500D01*
X244708934Y-133674500D01*
X244706396Y-133674673D01*
X244672949Y-133676953D01*
X244672948Y-133676953D01*
X244666393Y-133677400D01*
X244660019Y-133678989D01*
X244660014Y-133678990D01*
X244645640Y-133682574D01*
X244609594Y-133687000D01*
X243622910Y-133687000D01*
X243548410Y-133667038D01*
X243498209Y-133619065D01*
X243495731Y-133614074D01*
X243379940Y-133470060D01*
X243235926Y-133354269D01*
X243228702Y-133350683D01*
X243228699Y-133350681D01*
X243152595Y-133312903D01*
X243070408Y-133272105D01*
X242891107Y-133227400D01*
X242884552Y-133226953D01*
X242884551Y-133226953D01*
X242851104Y-133224673D01*
X242848566Y-133224500D01*
X241951434Y-133224500D01*
X241948896Y-133224673D01*
X241915449Y-133226953D01*
X241915448Y-133226953D01*
X241908893Y-133227400D01*
X241729592Y-133272105D01*
X241647405Y-133312903D01*
X241571301Y-133350681D01*
X241571298Y-133350683D01*
X241564074Y-133354269D01*
X241420060Y-133470060D01*
X241415001Y-133476352D01*
X241324095Y-133589416D01*
X241304269Y-133614074D01*
X241300683Y-133621298D01*
X241300681Y-133621301D01*
X241272834Y-133677400D01*
X241222105Y-133779592D01*
X241177400Y-133958893D01*
X241174500Y-134001434D01*
X241174500Y-134360244D01*
X241169356Y-134399058D01*
X241167653Y-134405371D01*
X241165164Y-134412010D01*
X241129963Y-134619034D01*
X240825500Y-134619034D01*
X240825500Y-134001434D01*
X240822600Y-133958893D01*
X240777895Y-133779592D01*
X240727166Y-133677400D01*
X240699319Y-133621301D01*
X240699317Y-133621298D01*
X240695731Y-133614074D01*
X240675906Y-133589416D01*
X240584999Y-133476352D01*
X240579940Y-133470060D01*
X240435926Y-133354269D01*
X240428702Y-133350683D01*
X240428699Y-133350681D01*
X240352595Y-133312903D01*
X240270408Y-133272105D01*
X240091107Y-133227400D01*
X240084552Y-133226953D01*
X240084551Y-133226953D01*
X240051104Y-133224673D01*
X240048566Y-133224500D01*
X239151434Y-133224500D01*
X239148896Y-133224673D01*
X239115449Y-133226953D01*
X239115448Y-133226953D01*
X239108893Y-133227400D01*
X238929592Y-133272105D01*
X238847405Y-133312903D01*
X238771301Y-133350681D01*
X238771298Y-133350683D01*
X238764074Y-133354269D01*
X238620060Y-133470060D01*
X238615001Y-133476352D01*
X238560720Y-133543864D01*
X238498481Y-133589416D01*
X238444599Y-133599500D01*
X236225060Y-133599500D01*
X236150560Y-133579538D01*
X236119701Y-133555859D01*
X235365451Y-132801609D01*
X235326887Y-132734814D01*
X235326887Y-132657686D01*
X235365451Y-132590891D01*
X235603945Y-132352397D01*
X235611942Y-132344965D01*
X235616570Y-132340970D01*
X235622360Y-132336863D01*
X235685789Y-132270604D01*
X235688062Y-132268280D01*
X235715272Y-132241070D01*
X235719399Y-132236073D01*
X235726649Y-132227922D01*
X235762668Y-132190296D01*
X235762673Y-132190290D01*
X235767575Y-132185169D01*
X235784856Y-132158406D01*
X235795138Y-132144357D01*
X235810904Y-132125266D01*
X235810909Y-132125258D01*
X235815425Y-132119790D01*
X235828958Y-132095019D01*
X235843797Y-132067860D01*
X235849380Y-132058475D01*
X235854530Y-132050500D01*
X235881485Y-132008754D01*
X235893397Y-131979198D01*
X235900837Y-131963459D01*
X235912709Y-131941729D01*
X235916109Y-131935506D01*
X235919901Y-131923659D01*
X235934146Y-131879158D01*
X235937854Y-131868886D01*
X235957330Y-131820560D01*
X235957331Y-131820556D01*
X235959981Y-131813981D01*
X235961340Y-131807021D01*
X235961342Y-131807015D01*
X235966090Y-131782704D01*
X235970420Y-131765840D01*
X235977966Y-131742265D01*
X235977967Y-131742260D01*
X235980129Y-131735506D01*
X235987190Y-131676726D01*
X235988883Y-131665982D01*
X236000230Y-131607878D01*
X236000500Y-131602357D01*
X236000500Y-131574849D01*
X236001564Y-131557077D01*
X236004330Y-131534049D01*
X236005176Y-131527010D01*
X236000872Y-131466221D01*
X236000500Y-131455698D01*
X236000500Y-130728927D01*
X236020462Y-130654427D01*
X236075000Y-130599889D01*
X236149500Y-130579927D01*
X236215750Y-130595466D01*
X236222534Y-130598833D01*
X236237597Y-130604375D01*
X236402581Y-130645510D01*
X236415521Y-130647548D01*
X236448949Y-130649827D01*
X236454027Y-130650000D01*
X236680384Y-130650000D01*
X236695855Y-130645855D01*
X236700000Y-130630384D01*
X237300000Y-130630384D01*
X237304145Y-130645855D01*
X237319616Y-130650000D01*
X237545973Y-130650000D01*
X237551051Y-130649827D01*
X237584479Y-130647548D01*
X237597419Y-130645510D01*
X237762403Y-130604375D01*
X237777462Y-130598835D01*
X237928427Y-130523895D01*
X237948740Y-130510904D01*
X237949895Y-130512710D01*
X238009848Y-130486265D01*
X238086525Y-130494592D01*
X238098899Y-130500049D01*
X238247538Y-130573835D01*
X238262597Y-130579375D01*
X238427581Y-130620510D01*
X238440521Y-130622548D01*
X238473949Y-130624827D01*
X238479027Y-130625000D01*
X238680384Y-130625000D01*
X238695855Y-130620855D01*
X238700000Y-130605384D01*
X239300000Y-130605384D01*
X239304145Y-130620855D01*
X239319616Y-130625000D01*
X239520973Y-130625000D01*
X239526051Y-130624827D01*
X239559479Y-130622548D01*
X239572419Y-130620510D01*
X239737403Y-130579375D01*
X239752462Y-130573835D01*
X239903433Y-130498892D01*
X239916937Y-130490256D01*
X240048299Y-130384639D01*
X240059639Y-130373299D01*
X240165256Y-130241937D01*
X240173892Y-130228433D01*
X240248835Y-130077462D01*
X240254375Y-130062403D01*
X240295510Y-129897419D01*
X240297548Y-129884479D01*
X240299827Y-129851051D01*
X240300000Y-129845973D01*
X240300000Y-129832116D01*
X240295855Y-129816645D01*
X240280384Y-129812500D01*
X239319616Y-129812500D01*
X239304145Y-129816645D01*
X239300000Y-129832116D01*
X239300000Y-130605384D01*
X238700000Y-130605384D01*
X238700000Y-129832116D01*
X238695855Y-129816645D01*
X238680384Y-129812500D01*
X238384616Y-129812500D01*
X238353021Y-129820966D01*
X238311526Y-129844923D01*
X238272962Y-129850000D01*
X237319616Y-129850000D01*
X237304145Y-129854145D01*
X237300000Y-129869616D01*
X237300000Y-130630384D01*
X236700000Y-130630384D01*
X236700000Y-129399000D01*
X236719962Y-129324500D01*
X236774500Y-129269962D01*
X236849000Y-129250000D01*
X237640384Y-129250000D01*
X237671979Y-129241534D01*
X237713474Y-129217577D01*
X237752038Y-129212500D01*
X240280384Y-129212500D01*
X240295855Y-129208355D01*
X240300000Y-129192884D01*
X240300000Y-129179027D01*
X240299827Y-129173949D01*
X240297548Y-129140521D01*
X240295510Y-129127581D01*
X240256981Y-128973046D01*
X240258327Y-128895929D01*
X240298051Y-128829818D01*
X240365509Y-128792426D01*
X240401555Y-128788000D01*
X240882525Y-128788000D01*
X240893439Y-128788400D01*
X240899542Y-128788848D01*
X240906534Y-128790037D01*
X240998286Y-128788035D01*
X241001536Y-128788000D01*
X241039969Y-128788000D01*
X241043484Y-128787665D01*
X241043496Y-128787664D01*
X241046405Y-128787386D01*
X241057308Y-128786747D01*
X241109393Y-128785611D01*
X241109397Y-128785611D01*
X241116481Y-128785456D01*
X241147634Y-128778749D01*
X241164833Y-128776087D01*
X241176968Y-128774929D01*
X241196546Y-128773061D01*
X241253347Y-128756398D01*
X241263921Y-128753713D01*
X241267720Y-128752895D01*
X241321771Y-128741258D01*
X241351091Y-128728782D01*
X241367477Y-128722916D01*
X241398049Y-128713947D01*
X241404351Y-128710701D01*
X241404359Y-128710698D01*
X241450659Y-128686852D01*
X241460543Y-128682211D01*
X241507111Y-128662396D01*
X241565450Y-128650500D01*
X241923566Y-128650500D01*
X241926104Y-128650327D01*
X241959551Y-128648047D01*
X241959552Y-128648047D01*
X241966107Y-128647600D01*
X242145408Y-128602895D01*
X242246132Y-128552895D01*
X242303699Y-128524319D01*
X242303702Y-128524317D01*
X242310926Y-128520731D01*
X242321970Y-128511852D01*
X242448648Y-128409999D01*
X242454940Y-128404940D01*
X242570731Y-128260926D01*
X242578828Y-128244616D01*
X242645509Y-128110287D01*
X242652895Y-128095408D01*
X242697600Y-127916107D01*
X242699794Y-127883930D01*
X242700327Y-127876104D01*
X242700500Y-127873566D01*
X242700500Y-127076434D01*
X242697600Y-127033893D01*
X242652895Y-126854592D01*
X242610712Y-126769616D01*
X242574319Y-126696301D01*
X242574317Y-126696298D01*
X242570731Y-126689074D01*
X242545297Y-126657440D01*
X242459999Y-126551352D01*
X242454940Y-126545060D01*
X242362666Y-126470869D01*
X242317216Y-126434326D01*
X242317214Y-126434325D01*
X242310926Y-126429269D01*
X242303702Y-126425683D01*
X242303699Y-126425681D01*
X242209714Y-126379027D01*
X242145408Y-126347105D01*
X241966107Y-126302400D01*
X241959552Y-126301953D01*
X241959551Y-126301953D01*
X241926104Y-126299673D01*
X241923566Y-126299500D01*
X240476434Y-126299500D01*
X240473896Y-126299673D01*
X240440449Y-126301953D01*
X240440448Y-126301953D01*
X240433893Y-126302400D01*
X240254592Y-126347105D01*
X240111157Y-126418307D01*
X240035550Y-126433552D01*
X239962451Y-126408951D01*
X239911445Y-126351097D01*
X239896110Y-126292644D01*
X239894722Y-126266156D01*
X239894722Y-126266154D01*
X239894313Y-126258354D01*
X239891194Y-126246714D01*
X239886933Y-126223721D01*
X239886490Y-126219508D01*
X239885674Y-126211744D01*
X239864920Y-126147871D01*
X239862706Y-126140396D01*
X239847340Y-126083050D01*
X239847339Y-126083048D01*
X239845320Y-126075512D01*
X239839848Y-126064773D01*
X239830901Y-126043171D01*
X239829591Y-126039140D01*
X239827179Y-126031716D01*
X239820274Y-126019757D01*
X239800311Y-125945259D01*
X239820272Y-125870759D01*
X239870905Y-125818554D01*
X239986984Y-125746722D01*
X239986989Y-125746718D01*
X239994345Y-125742166D01*
X240064453Y-125671935D01*
X240131213Y-125633314D01*
X240208341Y-125633246D01*
X240236155Y-125643743D01*
X240247364Y-125649307D01*
X240254592Y-125652895D01*
X240433893Y-125697600D01*
X240440448Y-125698047D01*
X240440449Y-125698047D01*
X240473896Y-125700327D01*
X240476434Y-125700500D01*
X241923566Y-125700500D01*
X241926104Y-125700327D01*
X241959551Y-125698047D01*
X241959552Y-125698047D01*
X241966107Y-125697600D01*
X242145408Y-125652895D01*
X242243614Y-125604145D01*
X242303699Y-125574319D01*
X242303702Y-125574317D01*
X242310926Y-125570731D01*
X242454940Y-125454940D01*
X242459999Y-125448648D01*
X242565674Y-125317216D01*
X242565675Y-125317214D01*
X242570731Y-125310926D01*
X242652895Y-125145408D01*
X242697600Y-124966107D01*
X242700500Y-124923566D01*
X242700500Y-124126434D01*
X242697600Y-124083893D01*
X242652895Y-123904592D01*
X242600798Y-123799644D01*
X242574319Y-123746301D01*
X242574317Y-123746298D01*
X242570731Y-123739074D01*
X242561114Y-123727112D01*
X242459999Y-123601352D01*
X242454940Y-123595060D01*
X242356136Y-123515619D01*
X242310584Y-123453380D01*
X242300500Y-123399498D01*
X242300500Y-123384440D01*
X243637501Y-123384440D01*
X243638139Y-123394166D01*
X243651669Y-123496947D01*
X243656682Y-123515655D01*
X243709662Y-123643562D01*
X243719347Y-123660337D01*
X243803631Y-123770179D01*
X243817323Y-123783870D01*
X243927163Y-123868153D01*
X243943935Y-123877837D01*
X244071846Y-123930818D01*
X244090552Y-123935831D01*
X244193336Y-123949363D01*
X244203058Y-123950000D01*
X246017884Y-123950000D01*
X246033355Y-123945855D01*
X246037500Y-123930384D01*
X246037500Y-122919616D01*
X246033355Y-122904145D01*
X246017884Y-122900000D01*
X243657117Y-122900000D01*
X243641646Y-122904145D01*
X243637501Y-122919616D01*
X243637501Y-123384440D01*
X242300500Y-123384440D01*
X242300500Y-121717560D01*
X242320462Y-121643060D01*
X242344141Y-121612201D01*
X242812201Y-121144141D01*
X242878996Y-121105577D01*
X242917560Y-121100500D01*
X243789719Y-121100500D01*
X243864219Y-121120462D01*
X243918757Y-121175000D01*
X243938719Y-121249500D01*
X243918757Y-121324000D01*
X243880424Y-121367710D01*
X243817324Y-121416128D01*
X243803630Y-121429823D01*
X243719347Y-121539663D01*
X243709663Y-121556435D01*
X243656682Y-121684346D01*
X243651669Y-121703052D01*
X243638137Y-121805836D01*
X243637500Y-121815558D01*
X243637500Y-122280384D01*
X243641645Y-122295855D01*
X243657116Y-122300000D01*
X246488500Y-122300000D01*
X246563000Y-122319962D01*
X246617538Y-122374500D01*
X246637500Y-122449000D01*
X246637500Y-123930383D01*
X246641645Y-123945854D01*
X246657116Y-123949999D01*
X248251000Y-123949999D01*
X248325500Y-123969961D01*
X248380038Y-124024499D01*
X248400000Y-124098999D01*
X248400000Y-138551000D01*
X248380038Y-138625500D01*
X248325500Y-138680038D01*
X248251000Y-138700000D01*
X201149000Y-138700000D01*
X201074500Y-138680038D01*
X201019962Y-138625500D01*
X201000000Y-138551000D01*
X201000000Y-134720973D01*
X211650000Y-134720973D01*
X211650173Y-134726051D01*
X211652452Y-134759479D01*
X211654490Y-134772419D01*
X211695625Y-134937403D01*
X211701165Y-134952462D01*
X211776108Y-135103433D01*
X211784744Y-135116937D01*
X211890361Y-135248299D01*
X211901701Y-135259639D01*
X212033063Y-135365256D01*
X212046567Y-135373892D01*
X212197538Y-135448835D01*
X212212597Y-135454375D01*
X212377581Y-135495510D01*
X212390521Y-135497548D01*
X212423949Y-135499827D01*
X212429027Y-135500000D01*
X212505384Y-135500000D01*
X212520855Y-135495855D01*
X212525000Y-135480384D01*
X213125000Y-135480384D01*
X213129145Y-135495855D01*
X213144616Y-135500000D01*
X213220973Y-135500000D01*
X213226051Y-135499827D01*
X213259479Y-135497548D01*
X213272419Y-135495510D01*
X213437403Y-135454375D01*
X213452462Y-135448835D01*
X213603433Y-135373892D01*
X213616937Y-135365256D01*
X213748299Y-135259639D01*
X213759639Y-135248299D01*
X213865256Y-135116937D01*
X213873892Y-135103433D01*
X213948835Y-134952462D01*
X213954375Y-134937403D01*
X213995510Y-134772419D01*
X213997548Y-134759479D01*
X213999827Y-134726051D01*
X214000000Y-134720973D01*
X214000000Y-134319616D01*
X213995855Y-134304145D01*
X213980384Y-134300000D01*
X213144616Y-134300000D01*
X213129145Y-134304145D01*
X213125000Y-134319616D01*
X213125000Y-135480384D01*
X212525000Y-135480384D01*
X212525000Y-134319616D01*
X212520855Y-134304145D01*
X212505384Y-134300000D01*
X211669616Y-134300000D01*
X211654145Y-134304145D01*
X211650000Y-134319616D01*
X211650000Y-134720973D01*
X201000000Y-134720973D01*
X201000000Y-133680384D01*
X211650000Y-133680384D01*
X211654145Y-133695855D01*
X211669616Y-133700000D01*
X212505384Y-133700000D01*
X212520855Y-133695855D01*
X212525000Y-133680384D01*
X213125000Y-133680384D01*
X213129145Y-133695855D01*
X213144616Y-133700000D01*
X213980384Y-133700000D01*
X213995855Y-133695855D01*
X214000000Y-133680384D01*
X214000000Y-133279027D01*
X213999827Y-133273949D01*
X213997548Y-133240521D01*
X213995510Y-133227581D01*
X213954375Y-133062597D01*
X213948835Y-133047538D01*
X213873892Y-132896567D01*
X213865256Y-132883063D01*
X213759639Y-132751701D01*
X213748299Y-132740361D01*
X213616937Y-132634744D01*
X213603433Y-132626108D01*
X213452462Y-132551165D01*
X213437403Y-132545625D01*
X213272419Y-132504490D01*
X213259479Y-132502452D01*
X213226051Y-132500173D01*
X213220973Y-132500000D01*
X213144616Y-132500000D01*
X213129145Y-132504145D01*
X213125000Y-132519616D01*
X213125000Y-133680384D01*
X212525000Y-133680384D01*
X212525000Y-132519616D01*
X212520855Y-132504145D01*
X212505384Y-132500000D01*
X212429027Y-132500000D01*
X212423949Y-132500173D01*
X212390521Y-132502452D01*
X212377581Y-132504490D01*
X212212597Y-132545625D01*
X212197538Y-132551165D01*
X212046567Y-132626108D01*
X212033063Y-132634744D01*
X211901701Y-132740361D01*
X211890361Y-132751701D01*
X211784744Y-132883063D01*
X211776108Y-132896567D01*
X211701165Y-133047538D01*
X211695625Y-133062597D01*
X211654490Y-133227581D01*
X211652452Y-133240521D01*
X211650173Y-133273949D01*
X211650000Y-133279027D01*
X211650000Y-133680384D01*
X201000000Y-133680384D01*
X201000000Y-131273566D01*
X203599500Y-131273566D01*
X203602400Y-131316107D01*
X203647105Y-131495408D01*
X203729269Y-131660926D01*
X203734325Y-131667214D01*
X203734326Y-131667216D01*
X203829800Y-131785961D01*
X203845060Y-131804940D01*
X203851352Y-131809999D01*
X203967841Y-131903659D01*
X203989074Y-131920731D01*
X203996298Y-131924317D01*
X203996301Y-131924319D01*
X204053068Y-131952498D01*
X204154592Y-132002895D01*
X204333893Y-132047600D01*
X204340448Y-132048047D01*
X204340449Y-132048047D01*
X204373896Y-132050327D01*
X204376434Y-132050500D01*
X205823566Y-132050500D01*
X205826104Y-132050327D01*
X205859551Y-132048047D01*
X205859552Y-132048047D01*
X205866107Y-132047600D01*
X206045408Y-132002895D01*
X206052633Y-131999308D01*
X206052637Y-131999307D01*
X206069293Y-131991039D01*
X206135543Y-131975500D01*
X206526691Y-131975500D01*
X206562738Y-131979926D01*
X206733893Y-132022600D01*
X206740448Y-132023047D01*
X206740449Y-132023047D01*
X206773896Y-132025327D01*
X206776434Y-132025500D01*
X207823566Y-132025500D01*
X207826104Y-132025327D01*
X207859551Y-132023047D01*
X207859552Y-132023047D01*
X207866107Y-132022600D01*
X208037262Y-131979926D01*
X208073309Y-131975500D01*
X209293832Y-131975500D01*
X209368332Y-131995462D01*
X209407132Y-132027732D01*
X209464776Y-132095224D01*
X209469231Y-132099029D01*
X209635540Y-132241070D01*
X209656341Y-132258836D01*
X209871141Y-132390466D01*
X209876550Y-132392706D01*
X209876553Y-132392708D01*
X210035302Y-132458463D01*
X210103889Y-132486873D01*
X210348852Y-132545683D01*
X210600000Y-132565449D01*
X210605832Y-132564990D01*
X210845316Y-132546142D01*
X210851148Y-132545683D01*
X211096111Y-132486873D01*
X211164698Y-132458463D01*
X211323447Y-132392708D01*
X211323450Y-132392706D01*
X211328859Y-132390466D01*
X211543659Y-132258836D01*
X211564461Y-132241070D01*
X211730769Y-132099029D01*
X211735224Y-132095224D01*
X211758595Y-132067860D01*
X211895033Y-131908112D01*
X211895034Y-131908110D01*
X211898836Y-131903659D01*
X212030466Y-131688859D01*
X212035479Y-131676758D01*
X212124632Y-131461521D01*
X212126873Y-131456111D01*
X212185683Y-131211148D01*
X212205449Y-130960000D01*
X212185683Y-130708852D01*
X212126873Y-130463889D01*
X212030466Y-130231141D01*
X211898836Y-130016341D01*
X211833636Y-129940001D01*
X211739029Y-129829231D01*
X211735224Y-129824776D01*
X211720851Y-129812500D01*
X211548112Y-129664967D01*
X211548110Y-129664966D01*
X211543659Y-129661164D01*
X211328859Y-129529534D01*
X211323450Y-129527294D01*
X211323447Y-129527292D01*
X211121615Y-129443691D01*
X211096111Y-129433127D01*
X210851148Y-129374317D01*
X210600000Y-129354551D01*
X210348852Y-129374317D01*
X210103889Y-129433127D01*
X210078385Y-129443691D01*
X209876553Y-129527292D01*
X209876550Y-129527294D01*
X209871141Y-129529534D01*
X209656341Y-129661164D01*
X209651890Y-129664966D01*
X209651888Y-129664967D01*
X209565441Y-129738800D01*
X209495826Y-129772005D01*
X209468673Y-129774500D01*
X208710904Y-129774500D01*
X208636404Y-129754538D01*
X208581866Y-129700000D01*
X208561904Y-129625500D01*
X208566330Y-129589454D01*
X208595510Y-129472419D01*
X208597548Y-129459479D01*
X208599827Y-129426051D01*
X208600000Y-129420973D01*
X208600000Y-129407116D01*
X208595855Y-129391645D01*
X208580384Y-129387500D01*
X207149000Y-129387500D01*
X207074500Y-129367538D01*
X207019962Y-129313000D01*
X207000000Y-129238500D01*
X207000000Y-128767884D01*
X207600000Y-128767884D01*
X207604145Y-128783355D01*
X207619616Y-128787500D01*
X208580384Y-128787500D01*
X208595855Y-128783355D01*
X208600000Y-128767884D01*
X208600000Y-128754027D01*
X208599827Y-128748949D01*
X208597548Y-128715521D01*
X208595510Y-128702581D01*
X208554375Y-128537597D01*
X208548835Y-128522538D01*
X208473892Y-128371567D01*
X208465256Y-128358063D01*
X208359639Y-128226701D01*
X208348299Y-128215361D01*
X208216937Y-128109744D01*
X208203433Y-128101108D01*
X208052462Y-128026165D01*
X208037403Y-128020625D01*
X207872419Y-127979490D01*
X207859479Y-127977452D01*
X207826051Y-127975173D01*
X207820973Y-127975000D01*
X207619616Y-127975000D01*
X207604145Y-127979145D01*
X207600000Y-127994616D01*
X207600000Y-128767884D01*
X207000000Y-128767884D01*
X207000000Y-127994616D01*
X206995855Y-127979145D01*
X206980384Y-127975000D01*
X206779027Y-127975000D01*
X206773949Y-127975173D01*
X206740521Y-127977452D01*
X206727581Y-127979490D01*
X206659035Y-127996580D01*
X206643651Y-128005107D01*
X206640103Y-128011012D01*
X206640000Y-128011746D01*
X206640000Y-128076000D01*
X206620038Y-128150500D01*
X206565500Y-128205038D01*
X206491000Y-128225000D01*
X205419616Y-128225000D01*
X205404145Y-128229145D01*
X205400000Y-128244616D01*
X205400000Y-129080384D01*
X205404145Y-129095855D01*
X205419616Y-129100000D01*
X205820973Y-129100000D01*
X205826047Y-129099827D01*
X205840863Y-129098817D01*
X205916549Y-129113665D01*
X205974671Y-129164366D01*
X205999655Y-129237335D01*
X206000000Y-129247472D01*
X206000000Y-129420973D01*
X206000173Y-129426051D01*
X206002452Y-129459479D01*
X206004490Y-129472422D01*
X206015692Y-129517351D01*
X206014346Y-129594467D01*
X205974621Y-129660579D01*
X205907163Y-129697970D01*
X205860985Y-129702051D01*
X205823566Y-129699500D01*
X204376434Y-129699500D01*
X204373896Y-129699673D01*
X204340449Y-129701953D01*
X204340448Y-129701953D01*
X204333893Y-129702400D01*
X204154592Y-129747105D01*
X204072405Y-129787903D01*
X203996301Y-129825681D01*
X203996298Y-129825683D01*
X203989074Y-129829269D01*
X203982786Y-129834325D01*
X203982784Y-129834326D01*
X203930546Y-129876327D01*
X203845060Y-129945060D01*
X203840001Y-129951352D01*
X203771668Y-130036341D01*
X203729269Y-130089074D01*
X203647105Y-130254592D01*
X203602400Y-130433893D01*
X203601953Y-130440448D01*
X203601953Y-130440449D01*
X203600724Y-130458479D01*
X203599500Y-130476434D01*
X203599500Y-131273566D01*
X201000000Y-131273566D01*
X201000000Y-128320973D01*
X203600000Y-128320973D01*
X203600173Y-128326051D01*
X203602452Y-128359479D01*
X203604490Y-128372419D01*
X203645625Y-128537403D01*
X203651165Y-128552462D01*
X203726108Y-128703433D01*
X203734744Y-128716937D01*
X203840361Y-128848299D01*
X203851701Y-128859639D01*
X203983063Y-128965256D01*
X203996567Y-128973892D01*
X204147538Y-129048835D01*
X204162597Y-129054375D01*
X204327581Y-129095510D01*
X204340521Y-129097548D01*
X204373949Y-129099827D01*
X204379027Y-129100000D01*
X204780384Y-129100000D01*
X204795855Y-129095855D01*
X204800000Y-129080384D01*
X204800000Y-128244616D01*
X204795855Y-128229145D01*
X204780384Y-128225000D01*
X203619616Y-128225000D01*
X203604145Y-128229145D01*
X203600000Y-128244616D01*
X203600000Y-128320973D01*
X201000000Y-128320973D01*
X201000000Y-127605384D01*
X203600000Y-127605384D01*
X203604145Y-127620855D01*
X203619616Y-127625000D01*
X204780384Y-127625000D01*
X204795855Y-127620855D01*
X204800000Y-127605384D01*
X205400000Y-127605384D01*
X205404145Y-127620855D01*
X205419616Y-127625000D01*
X206580384Y-127625000D01*
X206595855Y-127620855D01*
X206600000Y-127605384D01*
X206600000Y-127529027D01*
X206599827Y-127523949D01*
X206597548Y-127490521D01*
X206595510Y-127477581D01*
X206554375Y-127312597D01*
X206548835Y-127297538D01*
X206473892Y-127146567D01*
X206465256Y-127133063D01*
X206359639Y-127001701D01*
X206348299Y-126990361D01*
X206216937Y-126884744D01*
X206203433Y-126876108D01*
X206052462Y-126801165D01*
X206037403Y-126795625D01*
X205872419Y-126754490D01*
X205859479Y-126752452D01*
X205826051Y-126750173D01*
X205820973Y-126750000D01*
X205419616Y-126750000D01*
X205404145Y-126754145D01*
X205400000Y-126769616D01*
X205400000Y-127605384D01*
X204800000Y-127605384D01*
X204800000Y-126769616D01*
X204795855Y-126754145D01*
X204780384Y-126750000D01*
X204379027Y-126750000D01*
X204373949Y-126750173D01*
X204340521Y-126752452D01*
X204327581Y-126754490D01*
X204162597Y-126795625D01*
X204147538Y-126801165D01*
X203996567Y-126876108D01*
X203983063Y-126884744D01*
X203851701Y-126990361D01*
X203840361Y-127001701D01*
X203734744Y-127133063D01*
X203726108Y-127146567D01*
X203651165Y-127297538D01*
X203645625Y-127312597D01*
X203604490Y-127477581D01*
X203602452Y-127490521D01*
X203600173Y-127523949D01*
X203600000Y-127529027D01*
X203600000Y-127605384D01*
X201000000Y-127605384D01*
X201000000Y-124059000D01*
X201019962Y-123984500D01*
X201074500Y-123929962D01*
X201149000Y-123910000D01*
X202642884Y-123910000D01*
X202658355Y-123905855D01*
X202662500Y-123890384D01*
X202662500Y-123890383D01*
X203262500Y-123890383D01*
X203266645Y-123905854D01*
X203282116Y-123909999D01*
X205096940Y-123909999D01*
X205106666Y-123909361D01*
X205209447Y-123895831D01*
X205228155Y-123890818D01*
X205356062Y-123837838D01*
X205372837Y-123828153D01*
X205482679Y-123743869D01*
X205496370Y-123730177D01*
X205580653Y-123620337D01*
X205590337Y-123603565D01*
X205643318Y-123475654D01*
X205648331Y-123456948D01*
X205661863Y-123354164D01*
X205662500Y-123344442D01*
X205662500Y-122879616D01*
X205658355Y-122864145D01*
X205642884Y-122860000D01*
X203282116Y-122860000D01*
X203266645Y-122864145D01*
X203262500Y-122879616D01*
X203262500Y-123890383D01*
X202662500Y-123890383D01*
X202662500Y-122409000D01*
X202682462Y-122334500D01*
X202737000Y-122279962D01*
X202811500Y-122260000D01*
X205642883Y-122260000D01*
X205658354Y-122255855D01*
X205662499Y-122240384D01*
X205662499Y-121775560D01*
X205661861Y-121765834D01*
X205648331Y-121663053D01*
X205643318Y-121644345D01*
X205590338Y-121516438D01*
X205580653Y-121499663D01*
X205496369Y-121389821D01*
X205482677Y-121376130D01*
X205471704Y-121367710D01*
X205424751Y-121306520D01*
X205414684Y-121230052D01*
X205444199Y-121158795D01*
X205505389Y-121111842D01*
X205562409Y-121100500D01*
X205699498Y-121100500D01*
X205773998Y-121120462D01*
X205815619Y-121156136D01*
X205895060Y-121254940D01*
X205901352Y-121259999D01*
X206013911Y-121350499D01*
X206039074Y-121370731D01*
X206046298Y-121374317D01*
X206046301Y-121374319D01*
X206077530Y-121389821D01*
X206204592Y-121452895D01*
X206383893Y-121497600D01*
X206390448Y-121498047D01*
X206390449Y-121498047D01*
X206423896Y-121500327D01*
X206426434Y-121500500D01*
X207223566Y-121500500D01*
X207226104Y-121500327D01*
X207259551Y-121498047D01*
X207259552Y-121498047D01*
X207266107Y-121497600D01*
X207445408Y-121452895D01*
X207572470Y-121389821D01*
X207603699Y-121374319D01*
X207603702Y-121374317D01*
X207610926Y-121370731D01*
X207636090Y-121350499D01*
X207748648Y-121259999D01*
X207754940Y-121254940D01*
X207762884Y-121245060D01*
X207865674Y-121117216D01*
X207865675Y-121117214D01*
X207870731Y-121110926D01*
X207875860Y-121100595D01*
X207918832Y-121014027D01*
X207952895Y-120945408D01*
X207997600Y-120766107D01*
X207998271Y-120756272D01*
X208000327Y-120726104D01*
X208000500Y-120723566D01*
X208599500Y-120723566D01*
X208599673Y-120726104D01*
X208601730Y-120756272D01*
X208602400Y-120766107D01*
X208647105Y-120945408D01*
X208681168Y-121014027D01*
X208724141Y-121100595D01*
X208729269Y-121110926D01*
X208734325Y-121117214D01*
X208734326Y-121117216D01*
X208837116Y-121245060D01*
X208845060Y-121254940D01*
X208851352Y-121259999D01*
X208963911Y-121350499D01*
X208989074Y-121370731D01*
X208996298Y-121374317D01*
X208996301Y-121374319D01*
X209027530Y-121389821D01*
X209154592Y-121452895D01*
X209333893Y-121497600D01*
X209340448Y-121498047D01*
X209340449Y-121498047D01*
X209373896Y-121500327D01*
X209376434Y-121500500D01*
X210173566Y-121500500D01*
X210176104Y-121500327D01*
X210209551Y-121498047D01*
X210209552Y-121498047D01*
X210216107Y-121497600D01*
X210395408Y-121452895D01*
X210522470Y-121389821D01*
X210553699Y-121374319D01*
X210553702Y-121374317D01*
X210560926Y-121370731D01*
X210586090Y-121350499D01*
X210698648Y-121259999D01*
X210704940Y-121254940D01*
X210712884Y-121245060D01*
X210815674Y-121117216D01*
X210815675Y-121117214D01*
X210820731Y-121110926D01*
X210825860Y-121100595D01*
X210868832Y-121014027D01*
X210902895Y-120945408D01*
X210923329Y-120863453D01*
X210960722Y-120795996D01*
X211026834Y-120756272D01*
X211067903Y-120750500D01*
X211300500Y-120750500D01*
X211375000Y-120770462D01*
X211429538Y-120825000D01*
X211449500Y-120899500D01*
X211449500Y-122215282D01*
X211429538Y-122289782D01*
X211405859Y-122320641D01*
X210021657Y-123704844D01*
X210003877Y-123720029D01*
X210000453Y-123722517D01*
X209994129Y-123727112D01*
X209962735Y-123761979D01*
X209949187Y-123777025D01*
X209943818Y-123782683D01*
X209929881Y-123796620D01*
X209926512Y-123800781D01*
X209917480Y-123811934D01*
X209912416Y-123817863D01*
X209867467Y-123867784D01*
X209863562Y-123874548D01*
X209863561Y-123874549D01*
X209861441Y-123878221D01*
X209848203Y-123897483D01*
X209840617Y-123906851D01*
X209837071Y-123913811D01*
X209837068Y-123913815D01*
X209810120Y-123966704D01*
X209806414Y-123973530D01*
X209772821Y-124031716D01*
X209770409Y-124039140D01*
X209769099Y-124043171D01*
X209760152Y-124064773D01*
X209754680Y-124075512D01*
X209752661Y-124083048D01*
X209752660Y-124083050D01*
X209737294Y-124140396D01*
X209735080Y-124147871D01*
X209714326Y-124211744D01*
X209713510Y-124219508D01*
X209713067Y-124223721D01*
X209708806Y-124246714D01*
X209705687Y-124258354D01*
X209705278Y-124266154D01*
X209705278Y-124266156D01*
X209702172Y-124325428D01*
X209701560Y-124333203D01*
X209699908Y-124348924D01*
X209699500Y-124352808D01*
X209699500Y-124372515D01*
X209699296Y-124380312D01*
X209695781Y-124447388D01*
X209697002Y-124455100D01*
X209697411Y-124462900D01*
X209695657Y-124462992D01*
X209688625Y-124529851D01*
X209646293Y-124589745D01*
X209540133Y-124680415D01*
X209464776Y-124744776D01*
X209460971Y-124749231D01*
X209314248Y-124921022D01*
X209301164Y-124936341D01*
X209169534Y-125151141D01*
X209167294Y-125156550D01*
X209167292Y-125156553D01*
X209157983Y-125179027D01*
X209073127Y-125383889D01*
X209014317Y-125628852D01*
X208994551Y-125880000D01*
X209014317Y-126131148D01*
X209073127Y-126376111D01*
X209095146Y-126429269D01*
X209160480Y-126587000D01*
X209169534Y-126608859D01*
X209301164Y-126823659D01*
X209304966Y-126828110D01*
X209304967Y-126828112D01*
X209460971Y-127010769D01*
X209464776Y-127015224D01*
X209469231Y-127019029D01*
X209489205Y-127036088D01*
X209656341Y-127178836D01*
X209871141Y-127310466D01*
X209876550Y-127312706D01*
X209876553Y-127312708D01*
X209919425Y-127330466D01*
X210103889Y-127406873D01*
X210348852Y-127465683D01*
X210600000Y-127485449D01*
X210605832Y-127484990D01*
X210845316Y-127466142D01*
X210851148Y-127465683D01*
X211096111Y-127406873D01*
X211280575Y-127330466D01*
X211323447Y-127312708D01*
X211323450Y-127312706D01*
X211328859Y-127310466D01*
X211543659Y-127178836D01*
X211710796Y-127036088D01*
X211730769Y-127019029D01*
X211735224Y-127015224D01*
X211739029Y-127010769D01*
X211895033Y-126828112D01*
X211895034Y-126828110D01*
X211898836Y-126823659D01*
X212030466Y-126608859D01*
X212039521Y-126587000D01*
X212104854Y-126429269D01*
X212126873Y-126376111D01*
X212185683Y-126131148D01*
X212205449Y-125880000D01*
X212185683Y-125628852D01*
X212126873Y-125383889D01*
X212042017Y-125179027D01*
X212032708Y-125156553D01*
X212032706Y-125156550D01*
X212030466Y-125151141D01*
X211898836Y-124936341D01*
X211885753Y-124921022D01*
X211739029Y-124749231D01*
X211735224Y-124744776D01*
X211735478Y-124744559D01*
X211698444Y-124680415D01*
X211698444Y-124603287D01*
X211737008Y-124536492D01*
X212928349Y-123345151D01*
X212946128Y-123329967D01*
X212949549Y-123327481D01*
X212955871Y-123322888D01*
X213000804Y-123272985D01*
X213006173Y-123267327D01*
X213020120Y-123253380D01*
X213032539Y-123238045D01*
X213037595Y-123232125D01*
X213039535Y-123229971D01*
X213082533Y-123182216D01*
X213086438Y-123175452D01*
X213086443Y-123175445D01*
X213088556Y-123171785D01*
X213101804Y-123152508D01*
X213102255Y-123151951D01*
X213109383Y-123143149D01*
X213112928Y-123136192D01*
X213112931Y-123136187D01*
X213139880Y-123083296D01*
X213143586Y-123076470D01*
X213177179Y-123018284D01*
X213180901Y-123006828D01*
X213189855Y-122985214D01*
X213192605Y-122979818D01*
X213244219Y-122922505D01*
X213317574Y-122898678D01*
X213393015Y-122914720D01*
X213454398Y-122972977D01*
X213456399Y-122976443D01*
X213460120Y-122983296D01*
X213487068Y-123036185D01*
X213487071Y-123036189D01*
X213490617Y-123043149D01*
X213498203Y-123052517D01*
X213511441Y-123071779D01*
X213517467Y-123082216D01*
X213522695Y-123088022D01*
X213562416Y-123132137D01*
X213567480Y-123138066D01*
X213579881Y-123153380D01*
X213593818Y-123167317D01*
X213599187Y-123172975D01*
X213644129Y-123222888D01*
X213650451Y-123227481D01*
X213650453Y-123227483D01*
X213653877Y-123229971D01*
X213671657Y-123245156D01*
X214926898Y-124500398D01*
X214965462Y-124567193D01*
X214965462Y-124644321D01*
X214926898Y-124711116D01*
X214918320Y-124719045D01*
X214864776Y-124764776D01*
X214860971Y-124769231D01*
X214718246Y-124936341D01*
X214701164Y-124956341D01*
X214569534Y-125171141D01*
X214567294Y-125176550D01*
X214567292Y-125176553D01*
X214514627Y-125303699D01*
X214473127Y-125403889D01*
X214414317Y-125648852D01*
X214394551Y-125900000D01*
X214414317Y-126151148D01*
X214473127Y-126396111D01*
X214488636Y-126433552D01*
X214552196Y-126587000D01*
X214569534Y-126628859D01*
X214701164Y-126843659D01*
X214704966Y-126848110D01*
X214704967Y-126848112D01*
X214847694Y-127015224D01*
X214864776Y-127035224D01*
X215056341Y-127198836D01*
X215271141Y-127330466D01*
X215276550Y-127332706D01*
X215276553Y-127332708D01*
X215428172Y-127395510D01*
X215503889Y-127426873D01*
X215748852Y-127485683D01*
X216000000Y-127505449D01*
X216005832Y-127504990D01*
X216245316Y-127486142D01*
X216251148Y-127485683D01*
X216496111Y-127426873D01*
X216571828Y-127395510D01*
X216723447Y-127332708D01*
X216723450Y-127332706D01*
X216728859Y-127330466D01*
X216943659Y-127198836D01*
X217135224Y-127035224D01*
X217152306Y-127015224D01*
X217295033Y-126848112D01*
X217295034Y-126848110D01*
X217298836Y-126843659D01*
X217430466Y-126628859D01*
X217447805Y-126587000D01*
X217511364Y-126433552D01*
X217526873Y-126396111D01*
X217585683Y-126151148D01*
X217605449Y-125900000D01*
X217585683Y-125648852D01*
X217569245Y-125580384D01*
X230650000Y-125580384D01*
X230654145Y-125595855D01*
X230669616Y-125600000D01*
X231505384Y-125600000D01*
X231520855Y-125595855D01*
X231525000Y-125580384D01*
X232125000Y-125580384D01*
X232129145Y-125595855D01*
X232144616Y-125600000D01*
X232980384Y-125600000D01*
X232995855Y-125595855D01*
X233000000Y-125580384D01*
X233000000Y-125179027D01*
X232999827Y-125173949D01*
X232997548Y-125140521D01*
X232995510Y-125127581D01*
X232954375Y-124962597D01*
X232948835Y-124947538D01*
X232873892Y-124796567D01*
X232865256Y-124783063D01*
X232759639Y-124651701D01*
X232748299Y-124640361D01*
X232616937Y-124534744D01*
X232603433Y-124526108D01*
X232452462Y-124451165D01*
X232437403Y-124445625D01*
X232272419Y-124404490D01*
X232259479Y-124402452D01*
X232226051Y-124400173D01*
X232220973Y-124400000D01*
X232144616Y-124400000D01*
X232129145Y-124404145D01*
X232125000Y-124419616D01*
X232125000Y-125580384D01*
X231525000Y-125580384D01*
X231525000Y-124419616D01*
X231520855Y-124404145D01*
X231505384Y-124400000D01*
X231429027Y-124400000D01*
X231423949Y-124400173D01*
X231390521Y-124402452D01*
X231377581Y-124404490D01*
X231212597Y-124445625D01*
X231197538Y-124451165D01*
X231046567Y-124526108D01*
X231033063Y-124534744D01*
X230901701Y-124640361D01*
X230890361Y-124651701D01*
X230784744Y-124783063D01*
X230776108Y-124796567D01*
X230701165Y-124947538D01*
X230695625Y-124962597D01*
X230654490Y-125127581D01*
X230652452Y-125140521D01*
X230650173Y-125173949D01*
X230650000Y-125179027D01*
X230650000Y-125580384D01*
X217569245Y-125580384D01*
X217526873Y-125403889D01*
X217485373Y-125303699D01*
X217432708Y-125176553D01*
X217432706Y-125176550D01*
X217430466Y-125171141D01*
X217298836Y-124956341D01*
X217281755Y-124936341D01*
X217139029Y-124769231D01*
X217135224Y-124764776D01*
X216952732Y-124608913D01*
X216909046Y-124545350D01*
X216900500Y-124495613D01*
X216900500Y-124382599D01*
X216902334Y-124359291D01*
X216902998Y-124355100D01*
X216902998Y-124355096D01*
X216904219Y-124347388D01*
X216900704Y-124280312D01*
X216900500Y-124272516D01*
X216900500Y-124252808D01*
X216900092Y-124248922D01*
X216898440Y-124233201D01*
X216897828Y-124225427D01*
X216894722Y-124166157D01*
X216894722Y-124166155D01*
X216894313Y-124158355D01*
X216891194Y-124146715D01*
X216886933Y-124123722D01*
X216886491Y-124119514D01*
X216886490Y-124119511D01*
X216885674Y-124111744D01*
X216878755Y-124090449D01*
X216864918Y-124047863D01*
X216862702Y-124040383D01*
X216847342Y-123983058D01*
X216847342Y-123983057D01*
X216845320Y-123975512D01*
X216839848Y-123964773D01*
X216830901Y-123943171D01*
X216829591Y-123939140D01*
X216827179Y-123931716D01*
X216793586Y-123873530D01*
X216789880Y-123866704D01*
X216762931Y-123813813D01*
X216762928Y-123813808D01*
X216759383Y-123806851D01*
X216751804Y-123797492D01*
X216738556Y-123778215D01*
X216736443Y-123774555D01*
X216736438Y-123774548D01*
X216732533Y-123767784D01*
X216687591Y-123717870D01*
X216682530Y-123711945D01*
X216672571Y-123699647D01*
X216670120Y-123696620D01*
X216656173Y-123682673D01*
X216650804Y-123677015D01*
X216611097Y-123632916D01*
X216605871Y-123627112D01*
X216596546Y-123620337D01*
X216596128Y-123620033D01*
X216578349Y-123604849D01*
X215888220Y-122914720D01*
X215794473Y-122820973D01*
X230275000Y-122820973D01*
X230275173Y-122826051D01*
X230277452Y-122859479D01*
X230279490Y-122872419D01*
X230320625Y-123037403D01*
X230326165Y-123052462D01*
X230401108Y-123203433D01*
X230409744Y-123216937D01*
X230515361Y-123348299D01*
X230526701Y-123359639D01*
X230658063Y-123465256D01*
X230671567Y-123473892D01*
X230822538Y-123548835D01*
X230837597Y-123554375D01*
X231002581Y-123595510D01*
X231015521Y-123597548D01*
X231048949Y-123599827D01*
X231054027Y-123600000D01*
X231067884Y-123600000D01*
X231083355Y-123595855D01*
X231087500Y-123580384D01*
X231087500Y-122619616D01*
X231083355Y-122604145D01*
X231067884Y-122600000D01*
X230294616Y-122600000D01*
X230279145Y-122604145D01*
X230275000Y-122619616D01*
X230275000Y-122820973D01*
X215794473Y-122820973D01*
X215194141Y-122220642D01*
X215155577Y-122153847D01*
X215150500Y-122115283D01*
X215150500Y-121049500D01*
X215170462Y-120975000D01*
X215225000Y-120920462D01*
X215299500Y-120900500D01*
X215524498Y-120900500D01*
X215598998Y-120920462D01*
X215640619Y-120956136D01*
X215720060Y-121054940D01*
X215726352Y-121059999D01*
X215849229Y-121158795D01*
X215864074Y-121170731D01*
X215871298Y-121174317D01*
X215871301Y-121174319D01*
X215889291Y-121183249D01*
X216029592Y-121252895D01*
X216208893Y-121297600D01*
X216215448Y-121298047D01*
X216215449Y-121298047D01*
X216243586Y-121299965D01*
X216251434Y-121300500D01*
X216923566Y-121300500D01*
X216931414Y-121299965D01*
X216959551Y-121298047D01*
X216959552Y-121298047D01*
X216966107Y-121297600D01*
X217145408Y-121252895D01*
X217285709Y-121183249D01*
X217303699Y-121174319D01*
X217303702Y-121174317D01*
X217310926Y-121170731D01*
X217317216Y-121165674D01*
X217406636Y-121093778D01*
X217477205Y-121062653D01*
X217553882Y-121070983D01*
X217593364Y-121093778D01*
X217682784Y-121165674D01*
X217689074Y-121170731D01*
X217696298Y-121174317D01*
X217696301Y-121174319D01*
X217714291Y-121183249D01*
X217854592Y-121252895D01*
X218033893Y-121297600D01*
X218040448Y-121298047D01*
X218040449Y-121298047D01*
X218068586Y-121299965D01*
X218076434Y-121300500D01*
X218748566Y-121300500D01*
X218756414Y-121299965D01*
X218784551Y-121298047D01*
X218784552Y-121298047D01*
X218791107Y-121297600D01*
X218970408Y-121252895D01*
X219110709Y-121183249D01*
X219128699Y-121174319D01*
X219128702Y-121174317D01*
X219135926Y-121170731D01*
X219182383Y-121133378D01*
X219252950Y-121102254D01*
X219275746Y-121100500D01*
X220093265Y-121100500D01*
X220167765Y-121120462D01*
X220198160Y-121143680D01*
X220352517Y-121296696D01*
X220421741Y-121347453D01*
X220551884Y-121442878D01*
X220551890Y-121442882D01*
X220556346Y-121446149D01*
X220561239Y-121448723D01*
X220561240Y-121448724D01*
X220775129Y-121561257D01*
X220775134Y-121561259D01*
X220780026Y-121563833D01*
X220785247Y-121565656D01*
X220785251Y-121565658D01*
X220942187Y-121620462D01*
X221018644Y-121647162D01*
X221266958Y-121694306D01*
X221272481Y-121694523D01*
X221513988Y-121704012D01*
X221513989Y-121704012D01*
X221519513Y-121704229D01*
X221525009Y-121703627D01*
X221525011Y-121703627D01*
X221765254Y-121677316D01*
X221770760Y-121676713D01*
X221776109Y-121675305D01*
X221776113Y-121675304D01*
X221903826Y-121641680D01*
X222015181Y-121612363D01*
X222247405Y-121512591D01*
X222462331Y-121379591D01*
X222466537Y-121376030D01*
X222466543Y-121376026D01*
X222640196Y-121229017D01*
X222655238Y-121216283D01*
X222699619Y-121165677D01*
X222759783Y-121097073D01*
X222821888Y-121026256D01*
X222958619Y-120813684D01*
X223062428Y-120583236D01*
X223131034Y-120339976D01*
X223139984Y-120269629D01*
X223162460Y-120092951D01*
X223162460Y-120092947D01*
X223162931Y-120089247D01*
X223165268Y-120000000D01*
X223146537Y-119747945D01*
X223090756Y-119501428D01*
X223023126Y-119327517D01*
X223001156Y-119271021D01*
X223001155Y-119271019D01*
X222999150Y-119265863D01*
X222996409Y-119261067D01*
X222996406Y-119261061D01*
X222876474Y-119051224D01*
X222876469Y-119051217D01*
X222873731Y-119046426D01*
X222838001Y-119001103D01*
X222720678Y-118852279D01*
X222720672Y-118852273D01*
X222717255Y-118847938D01*
X222533160Y-118674758D01*
X222325489Y-118530691D01*
X222098805Y-118418903D01*
X222093546Y-118417219D01*
X222093542Y-118417218D01*
X221863354Y-118343535D01*
X221858087Y-118341849D01*
X221608624Y-118301221D01*
X221474274Y-118299462D01*
X221361425Y-118297985D01*
X221361420Y-118297985D01*
X221355896Y-118297913D01*
X221350425Y-118298658D01*
X221350418Y-118298658D01*
X221204522Y-118318514D01*
X221105455Y-118331996D01*
X221100142Y-118333544D01*
X221100140Y-118333545D01*
X221024285Y-118355655D01*
X220862803Y-118402723D01*
X220857774Y-118405041D01*
X220857775Y-118405041D01*
X220638288Y-118506225D01*
X220638281Y-118506229D01*
X220633270Y-118508539D01*
X220421899Y-118647120D01*
X220417783Y-118650794D01*
X220417780Y-118650796D01*
X220359963Y-118702400D01*
X220233333Y-118815421D01*
X220217610Y-118834326D01*
X220208086Y-118845777D01*
X220145100Y-118890291D01*
X220093529Y-118899500D01*
X219275746Y-118899500D01*
X219201246Y-118879538D01*
X219182389Y-118866626D01*
X219135926Y-118829269D01*
X219128702Y-118825683D01*
X219128699Y-118825681D01*
X219052595Y-118787903D01*
X218970408Y-118747105D01*
X218791107Y-118702400D01*
X218784552Y-118701953D01*
X218784551Y-118701953D01*
X218751104Y-118699673D01*
X218748566Y-118699500D01*
X218076434Y-118699500D01*
X218073896Y-118699673D01*
X218040449Y-118701953D01*
X218040448Y-118701953D01*
X218033893Y-118702400D01*
X217854592Y-118747105D01*
X217772405Y-118787903D01*
X217696301Y-118825681D01*
X217696298Y-118825683D01*
X217689074Y-118829269D01*
X217682786Y-118834325D01*
X217682784Y-118834326D01*
X217593364Y-118906222D01*
X217522795Y-118937347D01*
X217446118Y-118929017D01*
X217406636Y-118906222D01*
X217317216Y-118834326D01*
X217317214Y-118834325D01*
X217310926Y-118829269D01*
X217303702Y-118825683D01*
X217303699Y-118825681D01*
X217227595Y-118787903D01*
X217145408Y-118747105D01*
X216966107Y-118702400D01*
X216959552Y-118701953D01*
X216959551Y-118701953D01*
X216926104Y-118699673D01*
X216923566Y-118699500D01*
X216251434Y-118699500D01*
X216248896Y-118699673D01*
X216215449Y-118701953D01*
X216215448Y-118701953D01*
X216208893Y-118702400D01*
X216029592Y-118747105D01*
X215947405Y-118787903D01*
X215871301Y-118825681D01*
X215871298Y-118825683D01*
X215864074Y-118829269D01*
X215857786Y-118834325D01*
X215857784Y-118834326D01*
X215755661Y-118916436D01*
X215720060Y-118945060D01*
X215715001Y-118951352D01*
X215640619Y-119043864D01*
X215578380Y-119089416D01*
X215524498Y-119099500D01*
X215299500Y-119099500D01*
X215225000Y-119079538D01*
X215170462Y-119025000D01*
X215150500Y-118950500D01*
X215150500Y-117580384D01*
X230550000Y-117580384D01*
X230554145Y-117595855D01*
X230569616Y-117600000D01*
X231330384Y-117600000D01*
X231345855Y-117595855D01*
X231350000Y-117580384D01*
X231350000Y-116594616D01*
X231345855Y-116579145D01*
X231330384Y-116575000D01*
X231329027Y-116575000D01*
X231323949Y-116575173D01*
X231290521Y-116577452D01*
X231277581Y-116579490D01*
X231112597Y-116620625D01*
X231097538Y-116626165D01*
X230946567Y-116701108D01*
X230933063Y-116709744D01*
X230801701Y-116815361D01*
X230790361Y-116826701D01*
X230684744Y-116958063D01*
X230676108Y-116971567D01*
X230601165Y-117122538D01*
X230595625Y-117137597D01*
X230554490Y-117302581D01*
X230552452Y-117315521D01*
X230550173Y-117348949D01*
X230550000Y-117354027D01*
X230550000Y-117580384D01*
X215150500Y-117580384D01*
X215150500Y-117300134D01*
X215140616Y-117204871D01*
X215140483Y-117203593D01*
X215140482Y-117203590D01*
X215139641Y-117195481D01*
X215121131Y-117140000D01*
X215086995Y-117037680D01*
X215086994Y-117037678D01*
X215084256Y-117029471D01*
X214992166Y-116880655D01*
X214986047Y-116874546D01*
X214986044Y-116874543D01*
X214874436Y-116763130D01*
X214874434Y-116763129D01*
X214868311Y-116757016D01*
X214719334Y-116665186D01*
X214711119Y-116662461D01*
X214560956Y-116612653D01*
X214560953Y-116612652D01*
X214553228Y-116610090D01*
X214545131Y-116609260D01*
X214545129Y-116609260D01*
X214453655Y-116599888D01*
X214453651Y-116599888D01*
X214449866Y-116599500D01*
X214349000Y-116599500D01*
X214274500Y-116579538D01*
X214219962Y-116525000D01*
X214200000Y-116450500D01*
X214200000Y-116382116D01*
X214195855Y-116366645D01*
X214180384Y-116362500D01*
X212419617Y-116362500D01*
X212404146Y-116366645D01*
X212400001Y-116382116D01*
X212400001Y-116450500D01*
X212380039Y-116525000D01*
X212325501Y-116579538D01*
X212251001Y-116599500D01*
X212150134Y-116599500D01*
X212146303Y-116599898D01*
X212146294Y-116599898D01*
X212053593Y-116609517D01*
X212053590Y-116609518D01*
X212045481Y-116610359D01*
X212037746Y-116612940D01*
X212037744Y-116612940D01*
X211887680Y-116663005D01*
X211887678Y-116663006D01*
X211879471Y-116665744D01*
X211730655Y-116757834D01*
X211724546Y-116763953D01*
X211724543Y-116763956D01*
X211613130Y-116875564D01*
X211607016Y-116881689D01*
X211515186Y-117030666D01*
X211512462Y-117038880D01*
X211512461Y-117038881D01*
X211463085Y-117187744D01*
X211460090Y-117196772D01*
X211449500Y-117300134D01*
X211449500Y-118800500D01*
X211429538Y-118875000D01*
X211375000Y-118929538D01*
X211300500Y-118949500D01*
X210939915Y-118949500D01*
X210865415Y-118929538D01*
X210822004Y-118888051D01*
X210820731Y-118889074D01*
X210709999Y-118751352D01*
X210704940Y-118745060D01*
X210651326Y-118701953D01*
X210567216Y-118634326D01*
X210567214Y-118634325D01*
X210560926Y-118629269D01*
X210553702Y-118625683D01*
X210553699Y-118625681D01*
X210477595Y-118587903D01*
X210395408Y-118547105D01*
X210216107Y-118502400D01*
X210209552Y-118501953D01*
X210209551Y-118501953D01*
X210176104Y-118499673D01*
X210173566Y-118499500D01*
X209376434Y-118499500D01*
X209373896Y-118499673D01*
X209340449Y-118501953D01*
X209340448Y-118501953D01*
X209333893Y-118502400D01*
X209154592Y-118547105D01*
X209072405Y-118587903D01*
X208996301Y-118625681D01*
X208996298Y-118625683D01*
X208989074Y-118629269D01*
X208982786Y-118634325D01*
X208982784Y-118634326D01*
X208898674Y-118701953D01*
X208845060Y-118745060D01*
X208840001Y-118751352D01*
X208755975Y-118855859D01*
X208729269Y-118889074D01*
X208725683Y-118896298D01*
X208725681Y-118896301D01*
X208699512Y-118949018D01*
X208647105Y-119054592D01*
X208602400Y-119233893D01*
X208599500Y-119276434D01*
X208599500Y-120723566D01*
X208000500Y-120723566D01*
X208000500Y-119276434D01*
X207997600Y-119233893D01*
X207952895Y-119054592D01*
X207900488Y-118949018D01*
X207874319Y-118896301D01*
X207874317Y-118896298D01*
X207870731Y-118889074D01*
X207844026Y-118855859D01*
X207759999Y-118751352D01*
X207754940Y-118745060D01*
X207701326Y-118701953D01*
X207617216Y-118634326D01*
X207617214Y-118634325D01*
X207610926Y-118629269D01*
X207603702Y-118625683D01*
X207603699Y-118625681D01*
X207527595Y-118587903D01*
X207445408Y-118547105D01*
X207266107Y-118502400D01*
X207259552Y-118501953D01*
X207259551Y-118501953D01*
X207226104Y-118499673D01*
X207223566Y-118499500D01*
X206426434Y-118499500D01*
X206423896Y-118499673D01*
X206390449Y-118501953D01*
X206390448Y-118501953D01*
X206383893Y-118502400D01*
X206204592Y-118547105D01*
X206122405Y-118587903D01*
X206046301Y-118625681D01*
X206046298Y-118625683D01*
X206039074Y-118629269D01*
X206032786Y-118634325D01*
X206032784Y-118634326D01*
X205948674Y-118701953D01*
X205895060Y-118745060D01*
X205890001Y-118751352D01*
X205815619Y-118843864D01*
X205753380Y-118889416D01*
X205699498Y-118899500D01*
X205510281Y-118899500D01*
X205435781Y-118879538D01*
X205381243Y-118825000D01*
X205361281Y-118750500D01*
X205381243Y-118676000D01*
X205419576Y-118632290D01*
X205482676Y-118583872D01*
X205496370Y-118570177D01*
X205580653Y-118460337D01*
X205590337Y-118443565D01*
X205643318Y-118315654D01*
X205648331Y-118296948D01*
X205661863Y-118194164D01*
X205662500Y-118184442D01*
X205662500Y-117719616D01*
X205658355Y-117704145D01*
X205642884Y-117700000D01*
X202811500Y-117700000D01*
X202737000Y-117680038D01*
X202682462Y-117625500D01*
X202662500Y-117551000D01*
X202662500Y-117080384D01*
X203262500Y-117080384D01*
X203266645Y-117095855D01*
X203282116Y-117100000D01*
X205642883Y-117100000D01*
X205658354Y-117095855D01*
X205662499Y-117080384D01*
X205662499Y-116615560D01*
X205661861Y-116605834D01*
X205648331Y-116503053D01*
X205643318Y-116484345D01*
X205590338Y-116356438D01*
X205580653Y-116339663D01*
X205496369Y-116229821D01*
X205482677Y-116216130D01*
X205372837Y-116131847D01*
X205356065Y-116122163D01*
X205228154Y-116069182D01*
X205209448Y-116064169D01*
X205106664Y-116050637D01*
X205096942Y-116050000D01*
X203282116Y-116050000D01*
X203266645Y-116054145D01*
X203262500Y-116069616D01*
X203262500Y-117080384D01*
X202662500Y-117080384D01*
X202662500Y-116069617D01*
X202658355Y-116054146D01*
X202642884Y-116050001D01*
X201149000Y-116050001D01*
X201074500Y-116030039D01*
X201019962Y-115975501D01*
X201000000Y-115901001D01*
X201000000Y-114649000D01*
X201019962Y-114574500D01*
X201074500Y-114519962D01*
X201149000Y-114500000D01*
X212785103Y-114500000D01*
X212859603Y-114519962D01*
G37*
%TD.AperFunction*%
%TA.AperFunction,Conductor*%
G36*
X230908294Y-134120462D02*
G01*
X230962832Y-134175000D01*
X230982794Y-134249500D01*
X230962832Y-134324000D01*
X230927158Y-134365622D01*
X230834201Y-134440361D01*
X230822861Y-134451701D01*
X230717246Y-134583060D01*
X230704762Y-134602582D01*
X230647808Y-134654591D01*
X230572479Y-134671155D01*
X230498961Y-134647835D01*
X230448106Y-134593062D01*
X230410823Y-134523965D01*
X230405194Y-134515095D01*
X230274407Y-134338024D01*
X230246202Y-134266238D01*
X230257669Y-134189967D01*
X230305735Y-134129648D01*
X230377521Y-134101443D01*
X230394259Y-134100500D01*
X230833794Y-134100500D01*
X230908294Y-134120462D01*
G37*
%TD.AperFunction*%
%TD*%
%TA.AperFunction,Conductor*%
%TO.N,GND*%
G36*
X214400000Y-116600000D02*
G01*
X212200000Y-116600000D01*
X212200000Y-114500000D01*
X214400000Y-114500000D01*
X214400000Y-116600000D01*
G37*
%TD.AperFunction*%
%TD*%
%TA.AperFunction,Conductor*%
%TO.N,GND*%
G36*
X230700000Y-137400000D02*
G01*
X226900000Y-137400000D01*
X226900000Y-134100500D01*
X230700000Y-134100500D01*
X230700000Y-137400000D01*
G37*
%TD.AperFunction*%
%TA.AperFunction,Conductor*%
G36*
X230700000Y-131899500D02*
G01*
X226900000Y-131899500D01*
X226900000Y-128600000D01*
X230700000Y-128600000D01*
X230700000Y-131899500D01*
G37*
%TD.AperFunction*%
%TD*%
%TA.AperFunction,Conductor*%
%TO.N,Net-(L2-Pad1)*%
G36*
X217042121Y-119520002D02*
G01*
X217088614Y-119573658D01*
X217100000Y-119626000D01*
X217100000Y-120374000D01*
X217079998Y-120442121D01*
X217026342Y-120488614D01*
X216974000Y-120500000D01*
X214626000Y-120500000D01*
X214557879Y-120479998D01*
X214511386Y-120426342D01*
X214500000Y-120374000D01*
X214500000Y-119626000D01*
X214520002Y-119557879D01*
X214573658Y-119511386D01*
X214626000Y-119500000D01*
X216974000Y-119500000D01*
X217042121Y-119520002D01*
G37*
%TD.AperFunction*%
%TD*%
%TA.AperFunction,Conductor*%
%TO.N,Net-(L1-Pad1)*%
G36*
X212242121Y-119520002D02*
G01*
X212288614Y-119573658D01*
X212300000Y-119626000D01*
X212300000Y-120374000D01*
X212279998Y-120442121D01*
X212226342Y-120488614D01*
X212174000Y-120500000D01*
X209826000Y-120500000D01*
X209757879Y-120479998D01*
X209711386Y-120426342D01*
X209700000Y-120374000D01*
X209700000Y-119626000D01*
X209720002Y-119557879D01*
X209773658Y-119511386D01*
X209826000Y-119500000D01*
X212174000Y-119500000D01*
X212242121Y-119520002D01*
G37*
%TD.AperFunction*%
%TD*%
M02*
